<svg id="XMLID_1090_" xmlns="http://www.w3.org/2000/svg" xmlns:xlink="http://www.w3.org/1999/xlink" width="91.296" height="84.164" viewBox="0 0 91.296 84.164">
  <defs>
    <linearGradient id="linear-gradient" x1="0.5" x2="0.5" y2="1" gradientUnits="objectBoundingBox">
      <stop offset="0" stop-color="#02c4ff"/>
      <stop offset="1" stop-color="#00556f"/>
    </linearGradient>
  </defs>
  <path id="XMLID_1098_" d="M91.3,46.747a8.926,8.926,0,0,0-8.916-8.916H70.255V28.916A8.926,8.926,0,0,0,61.34,20H29.957a8.926,8.926,0,0,0-8.916,8.916v8.916H8.916A8.926,8.926,0,0,0,0,46.747v48.5a8.926,8.926,0,0,0,8.916,8.916H82.381A8.926,8.926,0,0,0,91.3,95.248ZM29.957,23.566H61.34a5.358,5.358,0,0,1,5.242,4.28H24.715a5.358,5.358,0,0,1,5.242-4.28ZM8.916,41.4H37.647a1.783,1.783,0,0,0,0-3.566H24.607V31.412H66.689v6.419H53.695a1.783,1.783,0,1,0,0,3.566H82.381a5.355,5.355,0,0,1,5.349,5.349V60.611L45.648,73.354,3.566,60.611V46.747A5.355,5.355,0,0,1,8.916,41.4Zm73.465,59.2H8.916a5.355,5.355,0,0,1-5.349-5.349V64.338L45.131,76.924a1.784,1.784,0,0,0,1.033,0L87.73,64.338v30.91A5.355,5.355,0,0,1,82.381,100.6Z" transform="translate(0 -20)" fill="url(#linear-gradient)"/>
  <path id="XMLID_1119_" d="M199.783,202.125H216.9a1.783,1.783,0,0,0,1.783-1.783v-8.559A1.783,1.783,0,0,0,216.9,190H199.783A1.783,1.783,0,0,0,198,191.783v8.559A1.783,1.783,0,0,0,199.783,202.125Zm1.783-8.559h13.552v4.993H201.566Z" transform="translate(-162.694 -159.687)" fill="url(#linear-gradient)"/>
  <path id="XMLID_1126_" d="M247.913,123.566a1.781,1.781,0,1,0-1.262-.522A1.8,1.8,0,0,0,247.913,123.566Z" transform="translate(-202.242 -102.169)" fill="url(#linear-gradient)"/>
</svg>
