<svg xmlns="http://www.w3.org/2000/svg" width="70.765" height="70" viewBox="0 0 70.765 70">
  <g id="contact" transform="translate(0 -0.45)" opacity="0.3">
    <path id="Path_8282" data-name="Path 8282" d="M221.446,297.462a1.807,1.807,0,0,1-3.084-1.277,1.1,1.1,0,0,0-2.192,0A4,4,0,0,0,223,299.012a1.1,1.1,0,0,0-1.55-1.55Z" transform="translate(-186.475 -254.485)" fill="#242222"/>
    <path id="Path_8283" data-name="Path 8283" d="M47.686,50.8H44.947a3.628,3.628,0,0,0-3.47,2.627H37.221a8.335,8.335,0,0,1-5.138-1.8,8.786,8.786,0,0,0,7-4.114c1.226-1.968,1.32-4.1,1.423-6.346a.58.58,0,0,1,.378-.52l3.2-1.181a2.766,2.766,0,0,0,1.3-4.094L40.868,28.7c-1.189-1.762-.748-3.651-.49-5.6h1.131a10.457,10.457,0,0,0,.139-20.914H21.167A2.072,2.072,0,0,0,19.133.45H14.226a2.074,2.074,0,0,0-2.058,1.968C7.9,2.963,4.85,4.551,2.848,7.258c-3.111,4.207-3.667,11.037-1.7,20.874.153.781.292,1.738.439,2.75.7,4.843,1.538,12.7,7.4,13.9-.115,4.52-1.3,8.7-2.5,13a5.859,5.859,0,0,0-5.026,5.815v5.828A1.022,1.022,0,0,0,2.472,70.45H5.765a1.027,1.027,0,0,0,0-2.054H3.489v-4.8a3.8,3.8,0,0,1,3.778-3.816H26.207a3.8,3.8,0,0,1,3.4,2.16L32.69,68.4H10.533a1.027,1.027,0,0,0,0,2.054H34.309a1.014,1.014,0,0,0,.861-.481,1.037,1.037,0,0,0,.055-.992l-3.783-7.931a5.858,5.858,0,0,0-3.991-3.183l.763-3.369a3.645,3.645,0,0,1,1.507-2.258,10.4,10.4,0,0,0,7.5,3.243h4.255a3.628,3.628,0,0,0,3.47,2.627h2.739a3.654,3.654,0,0,0,0-7.308ZM39.194,29.87,43.7,36.532a.674.674,0,0,1-.319,1l-3.2,1.181a2.627,2.627,0,0,0-1.711,2.355,10.915,10.915,0,0,1-.956,5.079,6.744,6.744,0,0,1-5.837,3.431,5.509,5.509,0,0,0-1.359.172L21.563,38.272a3.559,3.559,0,0,0,2.652-3.449V23.907a3.588,3.588,0,0,0-.091-.8h14.2c-.316,2.386-.61,4.65.867,6.766ZM14.8,36.329V29.2a.243.243,0,0,1,.241-.244h3.286a.243.243,0,0,1,.241.244v7.125Zm3.528-9.423H15.037a2.289,2.289,0,0,0-2.275,2.3v7.125a1.521,1.521,0,0,1-1.584-1.505V23.907a1.5,1.5,0,0,1,1.49-1.505h8.023a1.5,1.5,0,0,1,1.49,1.505V34.823A1.521,1.521,0,0,1,20.6,36.329V29.2A2.289,2.289,0,0,0,18.323,26.906Zm-2.71-11.928h2.134v5.37H15.613ZM14.2,2.535h4.968V5.8a1.017,1.017,0,1,0,2.033,0V4.245H41.649a8.4,8.4,0,0,1-.139,16.805H22.791a4.688,4.688,0,0,0-3.011-.7v-5.37c.663.08,1.417-.242,1.417-1.027V10.662a1.017,1.017,0,1,0-2.033,0v2.261H14.2ZM3.6,30.584c-.151-1.039-.293-2.019-.457-2.854-1.82-9.107-1.37-15.581,1.336-19.242,1.638-2.216,4.1-3.5,7.685-4v9.461a1.149,1.149,0,0,0,1.417,1.027v5.37c-2.2,0-4.435.947-4.435,3.56V34.823a3.546,3.546,0,0,0,3.523,3.56h.106v1.668a2.777,2.777,0,0,1-2.759,2.788c-5.188,0-5.889-8.621-6.417-12.254ZM28.169,50.842a5.654,5.654,0,0,0-1.939,3.2l-.834,3.68H8.609a52.411,52.411,0,0,0,2.41-12.939,4.839,4.839,0,0,0,3.788-4.734V38.383h4.273L28.43,50.642c-.089.064-.176.13-.261.2Zm19.517,5.211H44.947a1.6,1.6,0,0,1,0-3.2h2.739a1.6,1.6,0,0,1,0,3.2Z" transform="translate(0 0)" fill="#242222"/>
    <path id="Path_8284" data-name="Path 8284" d="M352.846,204.088H339.728a3.924,3.924,0,0,0-3.92,3.92v3.643a1.1,1.1,0,0,0,2.192,0v-3.643a1.73,1.73,0,0,1,1.728-1.728h13.118a1.73,1.73,0,0,1,1.728,1.728v11.608a1.73,1.73,0,0,1-1.728,1.728h-19.9l4.626-3.585a1.1,1.1,0,1,0-1.342-1.732l-5.323,4.126a1.9,1.9,0,0,0,1.158,3.383h20.779a3.924,3.924,0,0,0,3.92-3.92V208.008A3.924,3.924,0,0,0,352.846,204.088Z" transform="translate(-286.001 -176.406)" fill="#242222"/>
    <path id="Path_8285" data-name="Path 8285" d="M408.732,250.413h7.506a1.1,1.1,0,0,0,0-2.192h-7.506a1.1,1.1,0,0,0,0,2.192Z" transform="translate(-352.124 -213.907)" fill="#242222"/>
    <path id="Path_8286" data-name="Path 8286" d="M408.732,284.188h7.506a1.1,1.1,0,0,0,0-2.192h-7.506a1.1,1.1,0,1,0,0,2.192Z" transform="translate(-352.124 -243.066)" fill="#242222"/>
  </g>
</svg>
