<svg version="1.2" xmlns="http://www.w3.org/2000/svg" viewBox="0 0 800 500" width="800" height="500"><defs><clipPath clipPathUnits="userSpaceOnUse" id="cp1"><path d="m125.69 492.34c-52-24.76-154.56-257.07-71.62-360.92c83.46-104.52 180.88-9.04 291.76-43.15c68.07-20.94 118.05-44.55 185.87-63.76c61.27-17.35 146.15-13.11 188.77 41.26c38.88 49.58-4.05 112.08-8.35 167.7c-5.28 68.15 64.49 56.1 64.49 130.95c0 55.57-52.54 121.89-82.92 127.92z" /></clipPath><linearGradient id="P" gradientUnits="userSpaceOnUse"/><linearGradient id="g1" x1="1049.1" y1="410.6" x2="112" y2="862.3" href="#P"><stop stop-color="#ccfafc"/><stop offset="1" stop-color="#8cb6ff"/></linearGradient><linearGradient id="g2" x1="957.4" y1="514.1" x2="188.2" y2="885" href="#P"><stop stop-color="#b2d6fa"/><stop offset="1" stop-color="#8d73fd"/></linearGradient><linearGradient id="g3" x1="198.9" y1="219" x2="198.9" y2="177.2" href="#P"><stop offset="0" stop-color="#a0a7fb"/><stop offset="1" stop-color="#a0a7fb"/></linearGradient><linearGradient id="g4" x1="273" y1="263.9" x2="273" y2="302.5" href="#P"><stop offset="0" stop-color="#a0a7fb"/><stop offset="1" stop-color="#a0a7fb"/></linearGradient><linearGradient id="g5" x1="243.7" y1="265.2" x2="243.7" y2="322.4" href="#P"><stop offset="0" stop-color="#a0a7fb"/><stop offset="1" stop-color="#a0a7fb"/></linearGradient><linearGradient id="g6" x1="687.6" y1="229.5" x2="671.7" y2="367.1" href="#P"><stop offset="0" stop-color="#34395b"/><stop offset="1" stop-color="#292f52"/></linearGradient><linearGradient id="g7" x1="548" y1="174.7" x2="605.1" y2="174.7" href="#P"><stop stop-color="#554482"/><stop offset="1" stop-color="#2e3459"/></linearGradient><linearGradient id="g8" x1="685.3" y1="162.9" x2="659.7" y2="275.2" href="#P"><stop stop-color="#614d94"/><stop offset="1" stop-color="#333a63"/></linearGradient><linearGradient id="g9" x1="647.7" y1="180.5" x2="686.8" y2="180.5" href="#P"><stop stop-color="#554482"/><stop offset="1" stop-color="#2e3459"/></linearGradient><linearGradient id="g10" x1="511.4" y1="233.8" x2="523.5" y2="363.8" href="#P"><stop stop-color="#554482"/><stop offset="1" stop-color="#2e3459"/></linearGradient><linearGradient id="g11" x1="506.8" y1="160.2" x2="516.7" y2="266" href="#P"><stop offset="0" stop-color="#3e4463"/><stop offset="1" stop-color="#292f52"/></linearGradient></defs><style>.s0{fill:url(#g1)}.s1{fill:url(#g2)}.s2{fill:#c1e3f5}.s3{fill:#a0a7fb}.s4{opacity: .5;fill:#a0a7fb}.s5{fill:#d5eded}.s6{opacity: .2;fill:#a0a7fb}.s7{fill:url(#g3)}.s8{fill:#f2f2f2}.s9{fill:url(#g4)}.s10{fill:url(#g5)}.s11{fill:#292f52}.s12{fill:#414665}.s13{fill:#ff4964}.s14{fill:#ffa993}.s15{fill:#34395b}.s16{fill:#ff7d71}.s17{fill:url(#g6)}.s18{mix-blend-mode: multiply;fill:#cccccc}.s19{fill:#ff8f85}.s20{fill:url(#g7)}.s21{fill:url(#g8)}.s22{fill:#634e96}.s23{fill:#8a3eff}.s24{mix-blend-mode: soft-light;fill:#e6e6e6}.s25{fill:#454a68}.s26{fill:#313131}.s27{fill:#ffb29e}.s28{fill:#ededed}.s29{fill:url(#g9)}.s30{fill:url(#g10)}.s31{fill:url(#g11)}.s32{fill:#474c6a}</style><g clip-path="url(#cp1)"><path class="s0" d="m-137.5-72.1h963.2v589.8h-963.2z" /><path class="s1" d="m-55.5 464.7h996.7v56.7h-996.7z" /></g><path class="s2" d="m312.4 153.6c0-3.3 2.6-6 6-6h302.1c3.3 0 6 2.7 6 6v227.5c0 3.4-2.7 6-6 6h-302.1c-3.4 0-6-2.6-6-6z" /><path class="s3" d="m609 158.8c2.6 0 4.7 2.1 4.7 4.8c0 2.6-2.1 4.7-4.7 4.7c-2.6 0-4.8-2.1-4.8-4.7c0-2.7 2.2-4.8 4.8-4.8z" /><path class="s4" d="m596.9 158.8c2.6 0 4.7 2.1 4.7 4.8c0 2.6-2.1 4.7-4.7 4.7c-2.6 0-4.7-2.1-4.7-4.7c0-2.7 2.1-4.8 4.7-4.8z" /><path class="s4" d="m584.8 158.8c2.6 0 4.7 2.1 4.7 4.8c0 2.6-2.1 4.7-4.7 4.7c-2.6 0-4.7-2.1-4.7-4.7c0-2.7 2.1-4.8 4.7-4.8z" /><path class="s4" d="m324.9 163.6c0-2.6 2.3-4.8 5.3-4.8h66.8c2.9 0 5.3 2.2 5.3 4.8c0 2.5-2.4 4.7-5.3 4.7h-66.8c-3 0-5.3-2.2-5.3-4.7z" /><path class="s5" d="m334.2 387.1v-198.8c0-2.9 2.4-5.3 5.3-5.3h256.8c2.9 0 5.3 2.4 5.3 5.3v198.8z" /><path class="s6" d="m380.5 221.9h174.8v4.8h-174.8z" /><path class="s6" d="m355.7 249.1h224.4v4.8h-224.4z" /><path class="s6" d="m355.7 262.5h224.4v4.7h-224.4z" /><path class="s6" d="m355.7 275.8h224.4v4.8h-224.4z" /><path class="s6" d="m355.7 289.2h224.4v4.8h-224.4z" /><path class="s6" d="m355.7 302.6h224.4v4.8h-224.4z" /><path class="s6" d="m355.7 316h224.4v4.8h-224.4z" /><path class="s6" d="m355.7 329.4h224.4v4.8h-224.4z" /><path class="s6" d="m355.7 342.8h224.4v4.8h-224.4z" /><path class="s6" d="m355.7 356.2h224.4v4.8h-224.4z" /><path class="s6" d="m355.7 369.6h224.4v4.8h-224.4z" /><path class="s2" d="m190.3 153c0-3.6 3-6.6 6.6-6.6h91.1c3.6 0 6.6 3 6.6 6.6v72.7c0 3.7-3 6.6-6.6 6.6h-91.1c-3.6 0-6.6-2.9-6.6-6.6z" /><path class="s2" d="m190.3 257.4c0-3.7 3-6.6 6.6-6.6h91.1c3.6 0 6.6 2.9 6.6 6.6v72.7c0 3.7-3 6.6-6.6 6.6h-91.1c-3.6 0-6.6-2.9-6.6-6.6z" /><path class="s7" d="m199.6 200c6-5.6 16-12 25.2-12.4c7.6-0.4 13.3 5.8 21.7 4c10.8-2.4 16.9-14.4 25.6-19.7c4.7-2.9 9.3-2.9 14.5-3.9v52.3h-87.2z" /><path class="s8" d="m199.3 199.6q0.3-0.2 0.8-0.8q0.3-0.3 0.9-0.9q0.6-0.6 1.4-1.2c1-0.9 2.3-2 3.9-3.1c1.5-1.2 3.3-2.3 5.4-3.5c2.1-1.1 4.5-2.1 7.1-2.9c0.7-0.2 1.4-0.4 2.1-0.6q1-0.2 2.1-0.3q0.6-0.1 1.1-0.2h0.6h0.6c0.4 0 0.7 0 1.1 0q0.6 0.1 1.3 0.1c3.1 0.4 6 1.6 8.8 2.7c1.4 0.4 2.8 0.9 4.1 1.1q2.1 0.4 4.2 0.2l1-0.2h0.2h0.1c-0.2 0 0 0-0.1 0h0.1h0.1l0.6-0.2l1.1-0.3c0.3-0.1 0.6-0.2 0.9-0.4c0.3-0.1 0.7-0.2 1-0.4l0.9-0.5c0.7-0.2 1.2-0.7 1.8-1c2.4-1.6 4.6-3.6 6.6-5.6c2.1-2 4-4 6-5.8c2-1.9 4-3.5 6.1-4.7l0.2-0.2h0.1h0.1l0.1-0.1l0.4-0.2q0.3-0.2 0.7-0.4c0.5-0.2 1-0.4 1.6-0.6q0.4-0.2 0.8-0.3q0.4-0.1 0.7-0.2c0.5-0.2 1-0.3 1.5-0.4c1.9-0.4 3.6-0.6 4.9-0.7c1.4-0.2 2.4-0.3 3.1-0.4q0.7-0.1 1.1-0.1l0.2 1q-0.4 0.1-1.1 0.2q-1.1 0.3-3.1 0.7c-1.3 0.3-2.9 0.6-4.6 1.1c-0.5 0.1-0.9 0.3-1.3 0.5q-0.4 0.1-0.7 0.2q-0.3 0.2-0.7 0.3c-0.4 0.2-0.9 0.4-1.4 0.7q-0.3 0.2-0.7 0.4l-0.4 0.2v0.1c0 0-0.1 0 0 0h-0.1l-0.1 0.1c-1.9 1.2-3.7 2.9-5.5 4.7c-1.9 1.9-3.7 3.9-5.7 6c-2.1 2.1-4.3 4.3-7 6.1c-0.7 0.4-1.3 0.9-2.1 1.3l-1 0.6c-0.4 0.2-0.8 0.3-1.2 0.5c-0.4 0.1-0.8 0.3-1.2 0.4l-1.1 0.4l-0.6 0.1l-0.1 0.1h-0.2h-0.1l-0.3 0.1l-1.3 0.2c-1.7 0.2-3.4 0-5.1-0.3c-1.6-0.3-3.1-0.8-4.6-1.3q-2.1-0.8-4.2-1.6c-1.3-0.5-2.7-0.9-4-1.1q-0.4 0-0.9-0.1c-0.3 0-0.7 0-1 0h-0.3h-0.1h-0.1c-0.1 0 0.1 0 0 0h-0.5q-0.5 0-0.9 0.1q-1 0.1-2 0.2c-0.6 0.2-1.2 0.2-1.8 0.4c-2.5 0.6-4.8 1.5-6.8 2.5c-2.1 0.9-3.9 1.9-5.5 2.9c-1.6 0.9-2.9 1.8-4 2.6q-1.6 1.2-2.4 1.9q-0.6 0.5-0.9 0.7z" /><g style="opacity: .5"><path class="s8" d="m243.2 322.4v-13.2c6.9 0 13-4.4 15.2-10.9l12.5 4.2c-4 11.9-15.1 19.9-27.7 19.9z" /></g><g style="opacity: .4"><path class="s9" d="m270.9 302.5l-12.5-4.2q0.9-2.5 0.9-5.1c0-8.9-7.2-16.1-16.1-16.1q-2.4 0-4.7 0.7l-3.8-12.6c2.8-0.8 5.6-1.3 8.5-1.3c16.1 0 29.2 13.2 29.2 29.3c0 3.2-0.5 6.3-1.5 9.3z" /></g><path class="s10" d="m243.2 322.4c-16.1 0-29.2-13.1-29.2-29.2c0-13 8.3-24.2 20.7-28l3.8 12.6c-6.7 2-11.4 8.4-11.4 15.4c0 8.8 7.3 16 16.1 16z" /><path class="s11" d="m384.7 389.8c-0.7 0-1.3-0.2-1.8-0.7l-8.4-8.2c-0.8-0.8-2.7-1.5-3.9-1.5h-22.3c-1.2 0-3.1 0.7-3.9 1.5l-8.4 8.2c-1 1-2.7 0.9-3.7-0.1c-1-1-1-2.7 0.1-3.7l8.4-8.2c1.7-1.7 5-3 7.5-3h22.3c2.5 0 5.8 1.3 7.5 3l8.4 8.2c1.1 1 1.1 2.7 0.1 3.7c-0.5 0.5-1.2 0.8-1.9 0.8z" /><path class="s11" d="m417.6 390.8v63.2c0 3.7-3 6.6-6.6 6.6h-103.1c-3.6 0-6.6-2.9-6.6-6.6v-63.2q0-0.3 0-0.5c0.3-3.4 3.1-6.1 6.6-6.1h103.1c2.2 0 4.1 1.1 5.3 2.8c0.8 1.1 1.3 2.4 1.3 3.8z" /><path class="s12" d="m416.3 387l-11.6 35.4c-1.1 3.5-5 6.3-8.6 6.3h-75.6c-3.6 0-7.5-2.8-8.6-6.3l-10.6-32.1c0.3-3.4 3.1-6.1 6.6-6.1h103.1c2.2 0 4.1 1.1 5.3 2.8z" /><path class="s12" d="m417.6 441.1v12.9c0 3.7-3 6.6-6.6 6.6h-4c1.1-8.3 5.1-15.4 10.6-19.5z" /><path class="s12" d="m311.9 460.6h-4c-3.6 0-6.6-2.9-6.6-6.6v-12.9c5.5 4.1 9.5 11.2 10.6 19.5z" /><path class="s13" d="m350.4 428.2c0-2 1.7-3.7 3.7-3.7h11c2.1 0 3.7 1.7 3.7 3.7c0 2.1-1.6 3.8-3.7 3.8h-11c-2 0-3.7-1.7-3.7-3.8z" /><g style="opacity: .6;mix-blend-mode: multiply"></g><path class="s14" d="m653.9 356.1c1.6-0.6 9.7-4 11.2 10.5c1.5 14.4-4.3 54.8-4.5 59.3c-0.2 4.5 0.2 8.8 0.9 12.3c-1.9 21.6-19 22.5-19 8.3c5.4-5.6 3.4-17.5 2.7-25.7c-1.9-20.5-3.2-45.8-2.6-59q9.7-5.2 11.3-5.7z" /><path class="s15" d="m647.9 453.1c9.6-2.1 8.6-12.7 13.6-14.9q5.9 8.2 1.3 23.2q-0.7 0-1.5 0q0-1.8-1-5.7q-3.4 5.7-7.7 5.7q-4.2 0-13.5 0q-1.3-0.5-2.2-1.9c-1.8-4 5.2-12.1 7.7-15.8q-1.2 10.4 3.3 9.4z" /><path class="s14" d="m614.5 356.1c1.6-0.6 9.7-4 11.2 10.5c1.5 14.4-4.3 54.8-4.5 59.3c-0.2 4.5 0.2 8.8 0.9 12.3c-1.8 21.6-19 22.5-19 8.3c5.4-5.6 3.4-17.5 2.7-25.7c-1.9-20.5-3.2-45.8-2.6-59q9.7-5.2 11.3-5.7z" /><path class="s15" d="m608.5 453.1c9.6-2.1 8.6-12.7 13.6-14.9q5.9 8.2 1.3 23.2q-0.6 0-1.5 0q0-1.8-1-5.7q-3.4 5.7-7.7 5.7q-4.2 0-13.5 0q-1.3-0.5-2.1-1.9c-1.9-4 5.1-12.1 7.6-15.8q-1.2 10.4 3.3 9.4z" /><path class="s16" d="m653.9 356.1c1.6-0.6 9.7-4 11.2 10.5c0.2 1.6 0.2 3.7 0.2 5.9c-5.2 1.4-13.3 3-22.8 3.6c-0.1-5.5-0.1-10.4 0.1-14.3q9.7-5.2 11.3-5.7z" /><path class="s16" d="m603.2 361.8q9.7-5.2 11.3-5.7c1.6-0.6 9.7-4 11.2 10.5c0.2 2.4 0.3 5.5 0.2 9.1c-7.4-0.7-15.2-2.4-22.8-5.4c0-3.2 0-6 0.1-8.5z" /><path class="s17" d="m600.5 256.6q21.9-11.7 27.9-14.1c4.8-1.9 11.4 4.8 25.1 13.7c3.2 2.1 6.7 4.3 10.8 6.6c9.3 26.1 10.5 86.5 8.4 99.3q-0.1 0-0.1 0q-6 2.9-12.4 4.7q-0.1 0-0.1 0.1q0 0 0 0c-20.6 5.9-43.6 3.9-65.2-7.9c-4.1-33 2.8-88.7 5.6-102.4z" /><path class="s18" d="m669.7 287l-11.9 8.1q-12.7-8.1-17-10.7c-4.4-2.6-20.7-11.6-11.1-22.3q9.6-10.7 38.9 18.2z" /><path class="s18" d="m609.9 265.9c-5.5 22.8-11.7 57.8-3.3 98.5q-5.9-2.3-11.7-5.4c-4.1-33 2.8-88.7 5.6-102.4q1.6-0.9 4.1-2.2c3.5 1.9 6.5 3.4 7.9 2.5q-1.3 5-2.6 9z" /><path class="s19" d="m554 259.7c-7.4 0.9-9.3 5.5-19.1 7.4c-5.9 1.1-9.8-3.8-13.3-8.9c-3.5-5.1 4.7-6.2 9.3-5.9c4.5 0.2 3.3-2 5.5-4.2c2.3-2.3 7.9 0.9 9.6 0.7q1.6-0.1 5.2-1.5z" /><path class="s20" d="m605.1 222.2q-3.6 15.6-8.1 20c-10.1 9.8-40.8 19.7-45.8 20.2c-3.8-4-6-10-3.5-15.7c3-0.8 29.4-11 33.6-15.1q8.1-32.5 10.1-40.6c2-8.2 7.2-12.3 12.7-15.8z" /><path class="s18" d="m605.1 222.2q-3.6 15.6-8.1 20c-3.8 3.7-10.6 7.5-17.9 10.7c19.5-11.5 16.7-18.2 16.2-23.5c-0.9-9.5 2.7-28.9 4.5-36.1q2.3 4.1 4.9 9.8z" /><path class="s21" d="m601.7 220.6c-5.3-9.9-1.1-42.1 2.4-45.4c3.5-3.2 16.4-9.5 22.6-11.5l18.5 0.9q22.3 8.8 30.8 16.4c1.2 10.4-11.1 16.5-9.7 29.4q0.1 0.5 0.1 1.1q0 0 0 0c1.1 16.1-12.6 27.4-3.5 51.3c-2.4 1.5-7.8 2.7-13.5 3.5q-0.2 0-0.3 0c-7.3 1-15.1 1.2-17.4 0.5q-4.2-1.4-8.4-10.5l-7.2 9.2q-8.2 1.2-17-7.7c4-14 7.9-27.4 2.6-37.2z" /><path class="s18" d="m646.6 266.6c-6.5 0.7-12.8 0.8-14.9 0.2q-4.2-1.4-8.4-10.5l-7.2 9.2q-8.2 1.2-17-7.7q0.8-2.8 1.4-5.2c3.4 3.8 6.4 4.1 11.4 2.7q1.8-0.5 32.1-21.7q2.9 22.6 2.6 33z" /><path class="s22" d="m653.6 168.2c12.4 15.4-6.1 12.5-3.9 21.3c4.5 17.5-19 23.2-25.5 31.1c-25.5-29.8-7.5-35-11.1-44q-1.1-2.7 5.7-9.7l7.9-3.2l18.5 0.9z" /><path class="s23" d="m648 165.8c-0.6 21.3-21.7 34.7-23.9 52.6c-11.6-23.9-2.8-39.7-1.4-47.5q1.5-7.7 25.3-5.1z" /><path class="s24" d="m622.7 170.9l25.2-4.1l-0.5 4.1c-13.4 9.5-21.7 6.6-25.4 3z" /><path class="s25" d="m624.5 222.9q-0.1 0.5-0.2 1.3q-0.1 0.6-0.2 1.5c-0.1 0.5-0.1 1.2-0.2 1.8q-0.1 1.1-0.2 2.3q-0.1 1.2-0.2 2.5c-0.1 0.8-0.1 1.7-0.1 2.6c-0.1 0.9-0.2 1.9-0.2 2.8q0 1.4 0 2.7c-0.1 1 0 1.9 0 2.7c0 0.9-0.1 1.7 0 2.5q0 1.2 0 2.3c0 1.4 0.1 2.5 0.1 3.3q0 0.9 0 1.3l-0.5 0.1q-0.1-0.5-0.2-1.3c-0.1-0.8-0.3-2-0.5-3.4c-0.1-1.4-0.3-3-0.3-4.7c0-0.9-0.1-1.8-0.1-2.8q0-1.4 0-2.8c0-0.9 0.1-1.8 0.2-2.8q0.1-1.4 0.2-2.7q0.2-1.3 0.3-2.5q0.2-1.2 0.4-2.2c0.2-0.7 0.3-1.4 0.5-1.9q0.2-0.8 0.4-1.4q0.2-0.8 0.3-1.3z" /><path class="s18" d="m649.1 266.3c8.4-3.4 8.4-10 6.9-21.8c-1.4-11.8 8.3-38 7.8-48.1l2.6 15.1q0 0 0 0c1.1 16.1-12.6 27.4-3.5 51.3q-0.2 0.2-0.5 0.3c-3.7 2-11.5 3-13 3.2q-0.2 0-0.3 0z" /><path class="s26" d="m626.4 163.4c-5 4.1-16.2 6.2-17.8 5.3c5.5-17.7-3-46.3 7.6-58.8c8.2-9.7 18.9-3.7 29-2.7c7.4 0.8 13.3 4.7 16.3 26.5z" /><path class="s14" d="m647 147.6q6.7-2.7 1.8 7.7q0 7.2-1.1 11.8c-6 5.9-18.8 11.3-25 3.8q3.2-6.9 0.7-12.2q16.8-8.4 23.6-11.1z" /><path class="s16" d="m648.8 158.1q-0.3 3.3-1.1 9q-4.9 6.3-16.1 7.2q3-3.2 4.9-7.7c2.6-5.9-10-0.7-12.4-5.5l-0.7-2.4l22.4-7.4z" /><path class="s27" d="m644.9 121.7c18.2 2.3 8.1 17.3 5.6 24.1c-2.4 6.7-7.1 11.2-17.3 14.3c-19.7 5.8-17.6-31.2-16.3-37.2q9.8-3.4 28-1.2z" /><path class="s16" d="m643 135.4c-8.7-15.5-20.4-0.8-26.8-5.7l0.3-3.3q20.1-7.3 24.6-1.7q4.5 5.7 1.9 10.7z" /><path class="s16" d="m647.7 147.2q1.6 0.6-2.7 6.9q-2.3 1.7-3.7 2.6q1.3-2 2.8-10.6q2.1 0.5 3.6 1.1z" /><path class="s26" d="m639.9 169.7c2.5-5.5 4.4-13.8 4.7-21.3c-1.2-4.7-0.9-10-1.6-13c-8.4-21.5-19.9 1-28.3-8.8q1.1-9 6.7-15c5.7-6 20.7 5.2 31.7 11q3.2 1.6 8.4 11.1c2.9 21.8 6.9 29.9-21.6 36z" /><path class="s27" d="m643 135.4q4.9-3.9 5.8 0c1 3.9-1.7 10.3-4.7 10.7q-2.4-5.3-1.1-10.7z" /><path class="s28" d="m623.2 251.3l30.7-25.9l38.8 44.5l-30.8 26l-38.7-44.6z" /><path class="s14" d="m653.3 258.4c2.8-0.4 2.7 5.4 0.3 8.9c-2.4 3.6-3.7 6.8-5.6 10.8c-2 4-8.4 2.3-13.5-3.5c-5-5.9 1.3-8.7 1-10c-1.4-4.5 10-4.4 11.9-6q3.2 0.3 5.9-0.2z" /><path class="s29" d="m676 181c3.1 3.5 15.5 47.5 12.7 54.6q-2.9 7-34.4 32.3q-7.3-4.5-6.9-10.7c2.8-3.5 23.3-26.4 23.6-27.3q0.3-0.9-5-11.5q-7.3-16.2-0.1-29.4q4-7.4 10.1-8z" /><path class="s14" d="m508.9 284.1l13.4-1c2 8.2 8.6 15.2 7.1 21.2c-1.5 6-10.6 11.4-10.7 5.1c-0.3-12-8.5-8.4-7.6-16z" /><path class="s11" d="m504.4 174.8c4 3.9 11.8 8.3 14 26.3c1.1 8.6-2.4 33.3-1.1 41.6c1.2 8.2 10.8 42.2 10.8 45.7c-4.3 2.7-13.6 4.5-18.1 1.2q-7.4-41-7.7-53.5q-0.3-12.5 2.1-61.3z" /><path class="s14" d="m472.4 361.9c0.6 13.1-0.7 38.4-2.6 58.9c-0.8 8.2-2.7 20.1 2.7 25.7c0 14.2-17.2 13.3-19.1-8.3c0.8-3.5 1.2-7.8 1-12.3c-0.2-4.5-6-44.9-4.5-59.3c1.5-14.4 9.6-11.1 11.1-10.5q1.6 0.6 11.4 5.8z" /><path class="s11" d="m470.4 443.7c2.5 3.7 9.5 11.8 7.6 15.8q-0.9 1.4-2.1 1.9q-9.3 0-13.6 0q-4.2 0-7.6-5.7q-1 3.9-1 5.7q-0.9 0-1.5 0q-4.6-15 1.2-23.2c5 2.2 4 12.8 13.7 14.9q4.5 1 3.3-9.4z" /><path class="s14" d="m511.7 361.9c0.6 13.1-0.7 38.4-2.5 58.9c-0.8 8.2-2.7 20.1 2.6 25.7c0 14.2-17.1 13.3-19-8.3c0.8-3.5 1.1-7.8 1-12.3c-0.2-4.5-6-44.9-4.5-59.3c1.5-14.4 9.5-11.1 11.1-10.5q1.6 0.6 11.3 5.8z" /><path class="s11" d="m509.8 443.7c2.5 3.7 9.5 11.8 7.6 15.8q-0.9 1.4-2.1 1.9q-9.4 0-13.6 0q-4.3 0-7.6-5.7q-1 3.9-1 5.7q-0.9 0-1.5 0q-4.7-15 1.2-23.2c5 2.2 4 12.8 13.6 14.9q4.6 1 3.4-9.4z" /><path class="s16" d="m472.4 361.9c0.1 3.8 0.1 8.7 0 14.2c-9.4-0.6-17.5-2.2-22.8-3.5c0-2.3 0.1-4.3 0.3-6c1.5-14.4 9.6-11.1 11.2-10.5q1.5 0.6 11.3 5.8z" /><path class="s16" d="m511.9 370.3c-7.6 3-15.4 4.7-22.8 5.5c-0.1-3.6-0.1-6.8 0.2-9.2c1.5-14.4 9.5-11.1 11.1-10.5q1.6 0.6 11.3 5.8c0.1 2.4 0.2 5.2 0.2 8.4z" /><path class="s30" d="m518.3 358.9c-21.4 12.1-44.4 14.5-65 8.7q0 0 0 0.1q-0.1-0.1-0.2-0.1q-6.3-1.8-12.4-4.5q0 0-0.1-0.1c-2.2-12.7-1.8-73.1 7.2-99.4c3.9-2.3 7.5-4.5 10.6-6.6c13.6-9.1 20.1-15.9 25-14q6 2.3 28 13.7c3 13.6 10.6 69.2 6.9 102.2z" /><path class="s18" d="m455.9 265.9c-5.6 23.5-12.1 59.7-2.6 101.8c-4.5-1.4-11.7-4.3-12.6-4.6q0 0-0.1-0.1c-2.2-12.7-1.8-73.1 7.2-99.4c3.9-2.3 7.5-4.5 10.6-6.6q-1.3 5-2.5 8.9z" /><path class="s26" d="m442.7 182.2c-4-14.6 8.7-19.2 3.5-38.8c-4.9-18.6 1.3-27.5 11.8-33.4c10-5.7 22.6-9.5 32.5 1.4c8.9 9.7-1 24.8-1 32.2c0 7.3 12.4 28.9 5.4 43.1z" /><path class="s31" d="m511.4 256.7q-8.5 9.2-16.8 8.3l-7.9-3.6q-3.5 3.7-7.6 5.2c-2.3 0.9-10.1 0.8-17.4 0.1q-0.1 0-0.3 0c-5.7-0.6-11.2-1.7-13.6-3.1c8.4-24.2-5.6-35.1-5-51.2q0 0 0 0q0-0.5 0.1-1.1c1-12.9-11.4-18.6-10.6-29.1q8.3-7.8 30.3-17.2l18.5-1.5c6.2 1.9 19.4 7.7 22.9 10.9c3.6 3.2 10.1 40.9 6.2 51.4c-3.9 10.5-3.2 17 1.2 30.9z" /><path class="s32" d="m462.6 165l18.5-1.5l8 3q6.9 6.8 5.9 9.6c-3.3 9 14.9 13.7-9.7 44.2c-6.8-7.7-30.4-12.7-26.5-30.4c2-8.8-16.4-5.3-4.5-21.1z" /><path class="s13" d="m485.3 170.6c1.6 7.7 10.8 23.3 0 47.5c-2.7-17.9-24.2-30.6-25.4-51.9q23.7-3.3 25.4 4.4z" /><path class="s24" d="m459.9 166.2l25.4 4.4l0.6 2.4c-3.3 5.7-19.2 5.1-25.5-2.4z" /><path class="s32" d="m485.5 222.5q0.1 0.5 0.4 1.2q0.2 0.6 0.4 1.4c0.2 0.6 0.3 1.2 0.5 1.9q0.2 1 0.5 2.2q0.2 1.2 0.4 2.6q0.2 1.3 0.3 2.7c0 0.9 0.2 1.8 0.2 2.8q0.1 1.4 0.1 2.8c0 0.9 0 1.8 0 2.7c0 1.7-0.1 3.4-0.2 4.8c-0.1 1.4-0.3 2.5-0.4 3.3q-0.1 0.9-0.1 1.3h-0.5q0-0.5 0-1.3c0-0.8 0-2-0.1-3.4q0-1 0-2.2c0-0.8 0-1.7-0.1-2.5c0-0.9 0-1.8-0.1-2.7q0-1.4-0.1-2.8c0-0.9-0.1-1.8-0.2-2.7c-0.1-0.9-0.1-1.8-0.2-2.7q-0.2-1.3-0.3-2.5q-0.1-1.1-0.3-2.2c-0.1-0.7-0.1-1.3-0.2-1.9q-0.2-0.8-0.3-1.4q-0.1-0.8-0.2-1.3z" /><path class="s14" d="m484.5 158.8q-2.4 4.9 0.8 11.8c-6.2 7.5-19.2 2.5-25.2-3.4q-1.1-4.6-1.1-11.8q-4.9-10.4 1.9-7.7q6.7 2.7 23.6 11.1z" /><path class="s16" d="m468 157.6c-3.9-1-8.1 2.3-6 11.2c-0.7-0.6-1.5-1.3-1.8-1.5q0-0.1-0.1-0.1q-1.1-4.6-1.1-11.8q-4.9-10.4 1.9-7.7c1.2 0.5 2.8 1.2 4.5 2c0.5 1.2 0.7 2.3 0.9 2.9q0.5 1.9 1.7 5z" /><path class="s16" d="m483.8 161.2c-4.7 2.8-11.4 0.8-15.8-3.6l16.5 1.2z" /><path class="s27" d="m490.9 123c1.3 6 3.4 43-16.2 37.2c-10.3-3.1-14.9-7.6-17.4-14.3c-2.4-6.8-12.5-21.8 5.6-24q18.2-2.3 28 1.1z" /><path class="s16" d="m466.8 124.9q4.5-5.7 24.6 1.6l0.2 3.3c-6.3 4.9-18.1-9.8-26.8 5.7q-2.5-5 2-10.6z" /><path class="s26" d="m493.1 126.7c-8.4 9.8-19.8-12.7-28.3 8.8c-1.1 4.7 0.4 15.4-5.8 19.9c-6.2 4.5-19.5-27-8.4-32.8c11-5.8 30.2-16.9 35.8-10.9q5.6 6 6.7 15z" /><path class="s27" d="m463.7 146.2c-3-0.4-5.6-6.8-4.7-10.7q0.9-3.8 5.8 0q1.3 5.4-1.1 10.7z" /><path class="s18" d="m490.5 265.8c-1.5-0.1-18.6 4.6-42.2-1.9c-0.2 0-0.4-0.2-0.5-0.3c8.4-24.2-5.6-35.1-5-51.2q0 0 2.1 1.2l5.5-11.4c6 13.2 15.6 27.1 23 36.3c2.1 2.6 19.9 6.8 36.7 13.8q-19.5 13.5-19.6 13.5z" /><path class="s14" d="m520.6 256.4c3.2-0.8 7.7-5 11.1-3.1c3.3 2 1.5 4 7.2 2.9c5.6-1.1 9.3-1 6.4 6c-2.8 6.9-9.3 9.8-14.7 8.7c-5.4-1.1-11.5-4.4-14.6-4.4q-3 0 4.6-10.1z" /><path class="s11" d="m443.8 188.1q6.3 5.6 8.4 23.8q18 29.2 18.3 30.1c0.2 0.9 41 11.5 50.2 12.1q0.1 6.2-3.1 14.4q-41.1-1.8-58.9-11.8c-10.2-5.7-36.1-42-26.4-74.5q5.3 0.3 11.5 5.9z" /></svg>