<svg xmlns="http://www.w3.org/2000/svg" width="70.001" height="70" viewBox="0 0 70.001 70">
  <g id="email" transform="translate(0 -0.002)" opacity="0.3">
    <g id="Group_9957" data-name="Group 9957" transform="translate(0 9.399)">
      <g id="Group_9956" data-name="Group 9956">
        <path id="Path_8287" data-name="Path 8287" d="M70,86.664a1.34,1.34,0,0,0-.26-.8,1.365,1.365,0,0,0-.206-.222h0l-4.718-4.1A4.4,4.4,0,0,0,66.484,78.1V75.876A10.938,10.938,0,1,0,55.547,86.723a1.356,1.356,0,1,0,0-2.712,8.136,8.136,0,1,1,8.2-8.135V78.1a1.728,1.728,0,0,1-3.456,0V72.329a1.351,1.351,0,0,0-.428-.985,6.241,6.241,0,1,0-1.033,9.848A4.466,4.466,0,0,0,61.9,82.524a1.354,1.354,0,0,0,.285.347l4.258,3.7L55.508,94.457V90.922a1.367,1.367,0,0,0-2.734,0V96.43l-10.207,7.364L35.8,98.915a1.376,1.376,0,0,0-1.609,0l-6.763,4.879L3.615,86.609l7.78-6.752a1.348,1.348,0,0,0,.128-1.913,1.375,1.375,0,0,0-1.929-.127L.5,85.613h0a1.349,1.349,0,0,0-.5,1.05v37.613a1.362,1.362,0,0,0,1.367,1.356H68.634A1.362,1.362,0,0,0,70,124.277V86.664ZM57.559,76.228v2.554a3.525,3.525,0,1,1,0-5.81ZM2.734,89.327,25.109,105.47,2.734,121.614Zm2.836,33.594L35,101.688l29.43,21.233Zm61.7-1.307L44.891,105.47,67.266,89.327Z" transform="translate(0 -65.029)"/>
      </g>
    </g>
    <g id="Group_9959" data-name="Group 9959" transform="translate(13.794 0.002)">
      <g id="Group_9958" data-name="Group 9958">
        <path id="Path_8288" data-name="Path 8288" d="M139.43,9.718,128.621.354a1.444,1.444,0,0,0-1.888,0h0l-5.2,4.479a1.445,1.445,0,0,0,1.886,2.19l4.256-3.665L134.648,9.4h-27.2A1.445,1.445,0,0,0,106,10.843v20.8a1.445,1.445,0,0,0,2.89,0V12.289h29.593l-.013-.034h.012a1.445,1.445,0,0,0,.947-2.537Z" transform="translate(-106 -0.002)"/>
      </g>
    </g>
    <g id="Group_9961" data-name="Group 9961" transform="translate(19.804 22.644)">
      <g id="Group_9960" data-name="Group 9960">
        <path id="Path_8289" data-name="Path 8289" d="M163.309,166H148.862a1.445,1.445,0,0,0,0,2.89h14.447a1.445,1.445,0,0,0,0-2.89Z" transform="translate(-147.417 -165.997)"/>
      </g>
    </g>
    <g id="Group_9963" data-name="Group 9963" transform="translate(19.809 15.824)">
      <g id="Group_9962" data-name="Group 9962">
        <path id="Path_8290" data-name="Path 8290" d="M163.107,116H148.862a1.445,1.445,0,1,0,0,2.89h14.245a1.445,1.445,0,0,0,0-2.89Z" transform="translate(-147.417 -115.997)"/>
      </g>
    </g>
    <g id="Group_9965" data-name="Group 9965" transform="translate(14.459 34.011)">
      <g id="Group_9964" data-name="Group 9964">
        <path id="Path_8291" data-name="Path 8291" d="M108.467,249.75a1.444,1.444,0,1,0,.423,1.022A1.456,1.456,0,0,0,108.467,249.75Z" transform="translate(-106 -249.327)"/>
      </g>
    </g>
    <g id="Group_9967" data-name="Group 9967" transform="translate(40.004 29.368)">
      <g id="Group_9966" data-name="Group 9966">
        <path id="Path_8292" data-name="Path 8292" d="M298.276,215.289h-2.831a1.445,1.445,0,1,0,0,2.89h2.831a1.445,1.445,0,0,0,0-2.89Z" transform="translate(-294 -215.289)"/>
      </g>
    </g>
    <g id="Group_9969" data-name="Group 9969" transform="translate(34.06 29.368)">
      <g id="Group_9968" data-name="Group 9968">
        <path id="Path_8293" data-name="Path 8293" d="M251.162,215.289h-.016a1.445,1.445,0,1,0,0,2.89h.016a1.445,1.445,0,0,0,0-2.89Z" transform="translate(-249.701 -215.289)"/>
      </g>
    </g>
    <g id="Group_9971" data-name="Group 9971" transform="translate(19.952 29.368)">
      <g id="Group_9970" data-name="Group 9970">
        <path id="Path_8294" data-name="Path 8294" d="M156.706,215.289h-7.894a1.445,1.445,0,1,0,0,2.89h7.894a1.445,1.445,0,1,0,0-2.89Z" transform="translate(-147.367 -215.289)"/>
      </g>
    </g>
  </g>
</svg>
