<svg id="Group_70" data-name="Group 70" xmlns="http://www.w3.org/2000/svg" xmlns:xlink="http://www.w3.org/1999/xlink" width="518.349" height="399" viewBox="0 0 518.349 399">
  <defs>
    <clipPath id="clip-path">
      <rect id="Rectangle_56" data-name="Rectangle 56" width="518.349" height="399" fill="none"/>
    </clipPath>
    <clipPath id="clip-path-2">
      <rect id="Rectangle_28" data-name="Rectangle 28" width="518.35" height="399.001" fill="none"/>
    </clipPath>
    <clipPath id="clip-path-3">
      <path id="Path_28" data-name="Path 28" d="M1058.445,83.631V224.762l19.323-16.633h134.527V83.631Z" transform="translate(-1058.445 -83.631)" fill="none"/>
    </clipPath>
    <clipPath id="clip-path-4">
      <rect id="Rectangle_30" data-name="Rectangle 30" width="111.773" height="72.458" fill="none"/>
    </clipPath>
    <clipPath id="clip-path-5">
      <rect id="Rectangle_32" data-name="Rectangle 32" width="7.441" height="7.441" fill="none"/>
    </clipPath>
    <clipPath id="clip-path-6">
      <rect id="Rectangle_33" data-name="Rectangle 33" width="7.441" height="7.444" fill="none"/>
    </clipPath>
    <clipPath id="clip-path-7">
      <rect id="Rectangle_34" data-name="Rectangle 34" width="21.569" height="6.065" fill="none"/>
    </clipPath>
    <clipPath id="clip-path-8">
      <rect id="Rectangle_35" data-name="Rectangle 35" width="1.387" height="23.664" fill="none"/>
    </clipPath>
    <clipPath id="clip-path-9">
      <rect id="Rectangle_36" data-name="Rectangle 36" width="2.759" height="23.887" fill="none"/>
    </clipPath>
    <clipPath id="clip-path-11">
      <rect id="Rectangle_37" data-name="Rectangle 37" width="49.263" height="9.379" fill="none"/>
    </clipPath>
    <clipPath id="clip-path-12">
      <rect id="Rectangle_38" data-name="Rectangle 38" width="98.526" height="14.584" fill="none"/>
    </clipPath>
    <clipPath id="clip-path-13">
      <rect id="Rectangle_40" data-name="Rectangle 40" width="44.573" height="59.038" fill="none"/>
    </clipPath>
    <clipPath id="clip-path-14">
      <rect id="Rectangle_41" data-name="Rectangle 41" width="35.594" height="46.495" fill="none"/>
    </clipPath>
    <clipPath id="clip-path-15">
      <rect id="Rectangle_42" data-name="Rectangle 42" width="6.969" height="23.199" fill="none"/>
    </clipPath>
    <clipPath id="clip-path-16">
      <rect id="Rectangle_43" data-name="Rectangle 43" width="52.457" height="59.414" fill="none"/>
    </clipPath>
    <clipPath id="clip-path-17">
      <rect id="Rectangle_44" data-name="Rectangle 44" width="241.919" height="55.128" fill="none"/>
    </clipPath>
    <clipPath id="clip-path-18">
      <rect id="Rectangle_45" data-name="Rectangle 45" width="43.189" height="57.272" fill="none"/>
    </clipPath>
    <clipPath id="clip-path-19">
      <rect id="Rectangle_46" data-name="Rectangle 46" width="32.194" height="62.227" fill="none"/>
    </clipPath>
    <clipPath id="clip-path-20">
      <rect id="Rectangle_48" data-name="Rectangle 48" width="36.73" height="19.77" fill="none"/>
    </clipPath>
    <clipPath id="clip-path-21">
      <rect id="Rectangle_49" data-name="Rectangle 49" width="27.626" height="8.815" fill="none"/>
    </clipPath>
    <clipPath id="clip-path-22">
      <rect id="Rectangle_50" data-name="Rectangle 50" width="5.626" height="9.451" fill="none"/>
    </clipPath>
    <clipPath id="clip-path-23">
      <rect id="Rectangle_51" data-name="Rectangle 51" width="9.939" height="9.938" fill="none"/>
    </clipPath>
  </defs>
  <g id="Group_69" data-name="Group 69" clip-path="url(#clip-path)">
    <g id="Group_7" data-name="Group 7" transform="translate(0 -0.001)">
      <g id="Group_6" data-name="Group 6" clip-path="url(#clip-path-2)">
        <path id="Path_4" data-name="Path 4" d="M562.416,446.577a86.413,86.413,0,0,1,10.106-6.208c18.2-9.353,35.242-18.954,49.459-33.687,16.838-17.451,28.641-41.02,28.643-65.748s-13.3-50.08-35.212-60.336c-27.265-12.765-58.457-.628-88.125,2.432-38.245,3.944-76.268-7.7-114.009-15.736s-78.758-12.129-113.034,5.569c-27.6,14.249-47.922,42.453-53.233,73.872s4.514,65.312,25.737,88.773c30.62,33.851,78.784,42.967,123.444,45.126a595.168,595.168,0,0,0,98.606-3.42c14.743-1.744,28.543-4.743,41.562-12.076C545.725,459.861,553.716,452.68,562.416,446.577Z" transform="translate(-181.914 -192.896)" fill="none" stroke="#f4ebd7" stroke-miterlimit="10" stroke-width="2.596"/>
        <path id="Path_5" data-name="Path 5" d="M361.1,414.87c-22.99-2.719-46.124-8.274-66.438-20.448s-37.654-31.607-44.419-55.383-1.42-51.791,15.993-67.646c21.671-19.732,53.779-16.593,82-21.766,36.375-6.669,68.283-28.263,100.915-46.316s69.368-33.2,105.843-25.564c29.368,6.152,55.839,27.711,69.335,56.468s13.7,64.033.53,92.4c-19,40.924-60.957,62.863-101.583,77.155a551.2,551.2,0,0,1-91.939,23.684c-11.478,1.92-23.192,3.475-34.754,1.657s-23.106-7.4-30.26-17.407Z" transform="translate(-183.259 -130.158)" fill="#f4ebd7"/>
        <line id="Line_1" data-name="Line 1" x2="518.35" transform="translate(0 330.562)" fill="none" stroke="#102048" stroke-miterlimit="10" stroke-width="5"/>
      </g>
    </g>
    <g id="Group_27" data-name="Group 27" transform="translate(274.433 21.684)">
      <g id="Group_26" data-name="Group 26" clip-path="url(#clip-path-3)">
        <rect id="Rectangle_29" data-name="Rectangle 29" width="153.85" height="147.973" transform="translate(0 0)" fill="#fff"/>
        <g id="Group_10" data-name="Group 10" transform="translate(23.666 31.468)" opacity="0.6">
          <g id="Group_9" data-name="Group 9">
            <g id="Group_8" data-name="Group 8" clip-path="url(#clip-path-4)">
              <path id="Path_6" data-name="Path 6" d="M1170.642,267.015c-13.9-8.673-19.623-23.068-19.673-36.958-.041-11.675,5.021-26.076,21.758-23.511,11.251,1.724,20.661,8.6,31.444,11.641,8.731,2.461,18,1.741,26.84,1.306,13.856-.682,28.929,7.372,30.394,16.614,1.964,12.389.146,26.117-10.773,33.332C1231.508,282.074,1192.157,280.435,1170.642,267.015Z" transform="translate(-1150.645 -205.922)" fill="none" stroke="#1f3c88" stroke-miterlimit="10" stroke-width="2.5" stroke-dasharray="19.908 19.908"/>
            </g>
          </g>
        </g>
        <path id="Path_7" data-name="Path 7" d="M1170.228,288.639c-16.192-2.525-27.1-13.524-32.591-26.282-4.616-10.723-5.608-25.956,10.794-30.161,11.026-2.826,22.379-.191,33.49-1.624,9-1.161,17.241-5.457,25.2-9.324,12.479-6.062,26.947-8.566,34.475,3.364,6.694,10.609,5.292,25.179-1.922,36.1-12.635,19.123-44.393,31.836-69.448,27.929" transform="translate(-1114.928 -181.813)" fill="#d3dfff"/>
        <path id="Path_8" data-name="Path 8" d="M1149.726,124.8a6.431,6.431,0,1,1-6.431-6.431,6.431,6.431,0,0,1,6.431,6.431" transform="translate(-1116.532 -109.361)" fill="#ee6f57"/>
        <path id="Path_9" data-name="Path 9" d="M1154.939,138.081l-1.407-1.9-1.417,1.9H1150.7l2.135-2.782-2.043-2.7h1.427l1.345,1.8,1.345-1.8h1.386l-2.053,2.679,2.146,2.8Z" transform="translate(-1126.779 -119.902)" fill="#fff"/>
        <path id="Path_10" data-name="Path 10" d="M1213.615,124.8a6.431,6.431,0,1,1-6.431-6.431,6.431,6.431,0,0,1,6.431,6.431" transform="translate(-1163.855 -109.361)" fill="#fbc343"/>
        <rect id="Rectangle_31" data-name="Rectangle 31" width="5.177" height="1.412" transform="translate(40.741 14.731)" fill="#fff"/>
        <path id="Path_11" data-name="Path 11" d="M1276.612,256.576c-16.093,9.216-23.9,6.684-26.437,5.254-2.525,1.43-10.337,3.962-26.429-5.254-15.416-8.837-6.43-27.835-.359-39.394,3.3-6.279,5.842-12.906,11.628-17.431,5.442-4.257,11.54-5.572,18.691-5.219,9.831.485,15.93,6.34,18.945,13.364,2.4,5.587,5.377,10.813,8,16.284,2.455,5.127,4.434,10.708,4.618,16.4.214,6.621-2.644,12.553-8.653,16" transform="translate(-1174.562 -165.737)" fill="#6f3428"/>
        <path id="Path_12" data-name="Path 12" d="M1274.836,404.281c-9.857-11.089-28.008-8.775-29.939-8.492-1.932-.282-20.083-2.6-29.94,8.492-7.422,8.35-7.326,41.677-7.326,41.677,0-.822,34.527-1.064,37.266-1.081,2.738.018,37.266.26,37.266,1.081,0,0,.1-33.327-7.326-41.677" transform="translate(-1168.95 -314.564)" fill="#ee6f57"/>
        <path id="Path_13" data-name="Path 13" d="M1281.844,300.625c-3.867.4-7.089,9.818,3.374,10.015l2.5-2.964Z" transform="translate(-1221.191 -244.363)" fill="#e28b6d"/>
        <path id="Path_14" data-name="Path 14" d="M1394.964,300.625c4.362.228,7.46,9.818-3,10.015l-2.5-2.964Z" transform="translate(-1303.634 -244.363)" fill="#e28b6d"/>
        <path id="Path_15" data-name="Path 15" d="M1326.477,374.635h0a8.71,8.71,0,0,1-8.71-8.71V354.936h17.419v10.989a8.71,8.71,0,0,1-8.71,8.71" transform="translate(-1250.53 -284.592)" fill="#f9b384"/>
        <path id="Path_16" data-name="Path 16" d="M1334.93,363.924c-5.73,9.336-11.548,9.172-17.446.323Z" transform="translate(-1250.321 -291.25)" fill="#e28b6d"/>
        <path id="Path_17" data-name="Path 17" d="M1320.18,246.4c-.085.853-.186,1.69-.295,2.52-1.807,13.809-6.521,24.618-16.764,24.618-10.514,0-14.174-10.375-16.1-24.8-.163-1.179-.3-2.4-.442-3.629l20.68-8.266Z" transform="translate(-1227.431 -197.114)" fill="#f9b384"/>
        <path id="Path_18" data-name="Path 18" d="M1272.627,239.847c5.266,1.777,15.314-4.168,15.314-4.168-.78-2.261.324-4.485,2.52-6.688-.131,2.239.388,5.751,2.391,7.043a8.539,8.539,0,0,0,3.457-.129,7.414,7.414,0,0,1,1.421-6.623s2.359,6.429,3.522,7.883c1.471,1.838,6.765,4.616,11.5,2.294l-8.82-19.966-23.359-.485L1270.01,228.8Z" transform="translate(-1215.156 -183.908)" fill="#6f3428"/>
        <path id="Path_19" data-name="Path 19" d="M1325.587,296.144c0,1.051-.623,1.9-1.392,1.9s-1.392-.852-1.392-1.9.623-1.9,1.392-1.9,1.392.852,1.392,1.9" transform="translate(-1254.26 -239.634)" fill="#6f3428"/>
        <path id="Path_20" data-name="Path 20" d="M1370.691,296.144c0,1.051-.623,1.9-1.392,1.9s-1.392-.852-1.392-1.9.623-1.9,1.392-1.9,1.392.852,1.392,1.9" transform="translate(-1287.67 -239.634)" fill="#6f3428"/>
        <path id="Path_21" data-name="Path 21" d="M1349.849,311.819c0,1.847.147,3.3-1.388,3.344-1.459.04-1.388-1.5-1.388-3.344s.621-3.344,1.388-3.344,1.388,1.5,1.388,3.344" transform="translate(-1272.238 -250.178)" fill="#e28b6d"/>
        <path id="Path_22" data-name="Path 22" d="M1335.9,345.618l8.784-.243s-3.668,7.018-8.784.243" transform="translate(-1263.959 -277.51)" fill="#fff"/>
        <g id="Group_13" data-name="Group 13" transform="translate(80.863 59.385)" opacity="0.3">
          <g id="Group_12" data-name="Group 12">
            <g id="Group_11" data-name="Group 11" clip-path="url(#clip-path-5)">
              <path id="Path_23" data-name="Path 23" d="M1377.759,316.39a3.721,3.721,0,1,1-3.721-3.721,3.721,3.721,0,0,1,3.721,3.721" transform="translate(-1370.318 -312.669)" fill="#ee6f57"/>
            </g>
          </g>
        </g>
        <g id="Group_16" data-name="Group 16" transform="translate(64.87 59.771)" opacity="0.3">
          <g id="Group_15" data-name="Group 15">
            <g id="Group_14" data-name="Group 14" clip-path="url(#clip-path-6)">
              <path id="Path_24" data-name="Path 24" d="M1316.08,317.885a3.721,3.721,0,1,1-3.721-3.721,3.721,3.721,0,0,1,3.721,3.721" transform="translate(-1308.638 -314.163)" fill="#ee6f57"/>
            </g>
          </g>
        </g>
        <g id="Group_19" data-name="Group 19" transform="translate(65.298 88.575)" opacity="0.4">
          <g id="Group_18" data-name="Group 18">
            <g id="Group_17" data-name="Group 17" clip-path="url(#clip-path-7)">
              <path id="Path_25" data-name="Path 25" d="M1310.658,426.666a7.309,7.309,0,0,0,2.272,1.741,13.6,13.6,0,0,0,2.7,1.07,18.613,18.613,0,0,0,5.762.672,14.932,14.932,0,0,0,5.6-1.287,12.049,12.049,0,0,0,4.484-3.611l.381.248a10.842,10.842,0,0,1-1.883,2.448,11.94,11.94,0,0,1-2.53,1.825,13.973,13.973,0,0,1-6,1.534,16.749,16.749,0,0,1-6.1-.892,13.671,13.671,0,0,1-2.8-1.327,7.2,7.2,0,0,1-2.247-2.16Z" transform="translate(-1310.286 -425.251)" fill="#6f3428"/>
            </g>
          </g>
        </g>
        <g id="Group_22" data-name="Group 22" transform="translate(54.499 104.121)" opacity="0.4">
          <g id="Group_21" data-name="Group 21">
            <g id="Group_20" data-name="Group 20" clip-path="url(#clip-path-8)">
              <path id="Path_26" data-name="Path 26" d="M1269.949,485.222c.075,1.975.081,3.949.071,5.921s-.05,3.944-.1,5.915-.141,3.941-.263,5.91l-.2,2.953c-.091.983-.16,1.968-.275,2.95l-.454-.015c-.051-.988-.056-1.975-.083-2.962l-.005-2.96c.006-1.973.055-3.944.122-5.915s.149-3.941.28-5.91.252-3.938.456-5.9Z" transform="translate(-1268.638 -485.208)" fill="#6f3428"/>
            </g>
          </g>
        </g>
        <g id="Group_25" data-name="Group 25" transform="translate(96.505 103.144)" opacity="0.4">
          <g id="Group_24" data-name="Group 24">
            <g id="Group_23" data-name="Group 23" clip-path="url(#clip-path-9)">
              <path id="Path_27" data-name="Path 27" d="M1431.1,481.443c.331,1.973.593,3.953.84,5.935s.462,3.966.664,5.952.372,3.975.506,5.967l.187,2.99c.037,1,.1,2,.11,3l-.453.044c-.179-.986-.312-1.975-.467-2.963l-.39-2.971c-.25-1.981-.457-3.967-.647-5.954s-.364-3.976-.489-5.969-.261-3.986-.314-5.986Z" transform="translate(-1430.648 -481.442)" fill="#6f3428"/>
            </g>
          </g>
        </g>
      </g>
    </g>
    <g id="Group_68" data-name="Group 68" transform="translate(0 -0.001)">
      <g id="Group_67" data-name="Group 67" clip-path="url(#clip-path-2)">
        <path id="Path_29" data-name="Path 29" d="M1058.445,83.631V224.762l19.323-16.632h134.527V83.631Z" transform="translate(-784.012 -61.947)" fill="none" stroke="#708cd5" stroke-miterlimit="10" stroke-width="3.5"/>
        <g id="Group_30" data-name="Group 30" transform="translate(38.46 349.904)" opacity="0.15">
          <g id="Group_29" data-name="Group 29">
            <g id="Group_28" data-name="Group 28" clip-path="url(#clip-path-11)">
              <path id="Path_30" data-name="Path 30" d="M197.6,1354.208c0,2.59-11.028,4.689-24.632,4.689s-24.632-2.1-24.632-4.689,11.028-4.69,24.632-4.69,24.632,2.1,24.632,4.69" transform="translate(-148.333 -1349.518)" fill="#1f3c88"/>
            </g>
          </g>
        </g>
        <path id="Path_31" data-name="Path 31" d="M167.578,1267.161c-5.33,0-11.262-7.8-11.262-13.089a9.554,9.554,0,1,1,19.1,0c0,5.061-2.129,13.089-7.841,13.089m-1.711-19.595a6.417,6.417,0,0,0-6.31,6.505c0,3.958,4.8,9.848,8.021,9.848,2.962,0,4.6-5.823,4.6-9.848a6.417,6.417,0,0,0-6.311-6.505" transform="translate(-115.786 -921.696)" fill="#1f3c88"/>
        <path id="Path_32" data-name="Path 32" d="M209.721,1253.352H195.7a4.479,4.479,0,0,1-4.463-4.108l-2.9-34.946h29.331l-3.488,35.019a4.478,4.478,0,0,1-4.457,4.035" transform="translate(-139.503 -899.454)" fill="#1f3c88"/>
        <path id="Path_33" data-name="Path 33" d="M192.46,1051.545a21.917,21.917,0,0,0-.864,9.933,21.4,21.4,0,0,0,1.381,4.725,27.4,27.4,0,0,0,2.412,4.345,36.74,36.74,0,0,0,3.147,3.938c.274.3.573.667.874,1.027s.605.707.88,1.089l.778,1.2a10.352,10.352,0,0,1,.644,1.3,7.584,7.584,0,0,1,.475,1.394,6.93,6.93,0,0,1,.249,1.475,3.123,3.123,0,0,1,.009.754l-.051.755c-.036.249-.1.493-.158.739a3.682,3.682,0,0,1-.212.718l-.283.688c-.116.217-.242.427-.364.639a4.531,4.531,0,0,1-.407.6,4.853,4.853,0,0,1-.452.558,8.424,8.424,0,0,1-2.2,1.776l-.541-.857a7.852,7.852,0,0,0,2.517-3.94,2.342,2.342,0,0,0,.1-.552c.018-.186.055-.368.063-.553l-.025-.556a1.9,1.9,0,0,0-.064-.55,5.177,5.177,0,0,0-.274-1.086,5.488,5.488,0,0,0-.45-1.052,11.088,11.088,0,0,0-.587-1.012l-.7-.973c-.248-.315-.543-.607-.811-.912l-.861-.938c-.615-.66-1.23-1.321-1.793-2.035-.593-.685-1.115-1.435-1.64-2.179a26.2,26.2,0,0,1-2.573-4.86,20.586,20.586,0,0,1-1.28-5.385,19.214,19.214,0,0,1,2.122-10.59Z" transform="translate(-140.228 -778.615)" fill="#d3dfff"/>
        <path id="Path_34" data-name="Path 34" d="M248.473,1048.786a12.118,12.118,0,0,1,3.983,5.945,13.3,13.3,0,0,1,.529,3.657,16.865,16.865,0,0,1-.426,3.63,21.6,21.6,0,0,1-1.132,3.407l-.307.751c-.091.235-.2.47-.279.706l-.2.707c-.072.238-.08.463-.13.7a3.245,3.245,0,0,0-.046.683,3.091,3.091,0,0,0,.056.658,3.836,3.836,0,0,0,.155.632,4.051,4.051,0,0,0,.3.585,5,5,0,0,0,2.218,1.824l-.2.994a5.434,5.434,0,0,1-3.446-1.7,4.77,4.77,0,0,1-1.038-1.8,4.813,4.813,0,0,1-.219-1.013,5.324,5.324,0,0,1-.053-1.011,6.757,6.757,0,0,1,.08-.985l.193-.946c.078-.308.187-.6.281-.9s.2-.605.288-.839a24.566,24.566,0,0,0,.963-3.046,18.151,18.151,0,0,0,.46-3.092,14.175,14.175,0,0,0-.2-3.076,14.846,14.846,0,0,0-2.572-5.78Z" transform="translate(-183.502 -776.856)" fill="#d3dfff"/>
        <g id="Group_33" data-name="Group 33" transform="translate(388.001 346.987)" opacity="0.15">
          <g id="Group_32" data-name="Group 32">
            <g id="Group_31" data-name="Group 31" clip-path="url(#clip-path-12)">
              <path id="Path_35" data-name="Path 35" d="M1594.984,1345.561c0,4.027-22.056,7.292-49.263,7.292s-49.263-3.265-49.263-7.292,22.056-7.292,49.263-7.292,49.263,3.265,49.263,7.292" transform="translate(-1496.458 -1338.269)" fill="#1f3c88"/>
            </g>
          </g>
        </g>
        <rect id="Rectangle_39" data-name="Rectangle 39" width="6.914" height="67.629" transform="translate(433.486 235.497)" fill="#27481f"/>
        <path id="Path_36" data-name="Path 36" d="M1592.22,747.822a96.077,96.077,0,0,1-.927,11.681c-.292,2.048-.538,3.228-.538,3.228-18.876-6.125-27.536-17.825-31.139-29.629-.337-1.076-.622-2.159-.869-3.234-3.811-16.425,1.3-32.073,1.3-32.073,8.653,1.808,15.051,5.581,19.751,10.436a33.729,33.729,0,0,1,2.269,2.573c8.7,10.9,10.365,25.934,10.157,37.019" transform="translate(-1153.549 -516.869)" fill="#49883a"/>
        <path id="Path_37" data-name="Path 37" d="M1681.249,664.054c-.376,13.133-5.484,28.43-21.326,43.118q-1.818,1.692-3.844,3.377c-.143.123-.285.24-.428.357a66.245,66.245,0,0,1-5.328-10.112c-.039-.091-.078-.175-.11-.266a74.985,74.985,0,0,1-2.742-7.461,70.326,70.326,0,0,1-1.815-7.137c-1.906-9.664-1.912-21.125,3.358-32.468,3.954-8.543,10.9-17.015,22.272-24.619a63.9,63.9,0,0,1,9.963,35.21" transform="translate(-1218.109 -465.797)" fill="#49883a"/>
        <g id="Group_36" data-name="Group 36" transform="translate(397.322 191.36)" opacity="0.5">
          <g id="Group_35" data-name="Group 35">
            <g id="Group_34" data-name="Group 34" clip-path="url(#clip-path-13)">
              <path id="Path_38" data-name="Path 38" d="M1576.9,788.059q-1.818,1.692-3.844,3.377c-.142.123-.285.24-.428.357a66.243,66.243,0,0,1-5.328-10.112c-.037-.086-.074-.179-.111-.265h0c-.229-.534-.458-1.087-.685-1.655-.087-.217-.172-.445-.259-.666-.148-.381-.3-.758-.444-1.153-.115-.309-.226-.633-.339-.951-.119-.333-.239-.659-.355-1q-.338-.995-.659-2.036a70.26,70.26,0,0,1-1.815-7.137,53.8,53.8,0,0,1,.966-26.2,33.645,33.645,0,0,0-2.269-2.573,92.646,92.646,0,0,0-5.119,25.7,73.629,73.629,0,0,0-15.928-4.062c.246,1.076.531,2.158.868,3.235-2.69-.642-5.6-1.206-8.744-1.673,2.483,8.466,12.439,35.431,38.419,35.833.661.013,1.329.006,2.009-.02,1.07-.032,2.165-.117,3.293-.246a25.232,25.232,0,0,0,.771-8.751" transform="translate(-1532.408 -738.044)" fill="#27481f"/>
            </g>
          </g>
        </g>
        <path id="Path_39" data-name="Path 39" d="M1564.7,860.751a.225.225,0,0,1-.006.065c-.013.162-.026.318-.046.467-.013.071-.02.143-.026.214-.013.123-.026.24-.045.357-.046.357-.1.687-.149,1-.032.207-.071.408-.11.6a19.408,19.408,0,0,1-.732,2.781,40.267,40.267,0,0,1-5.309-.006c-30.757-2.061-37.07-40.292-37.07-40.292.992.123,1.958.259,2.9.408,3.144.467,6.054,1.031,8.744,1.672,11.117,2.645,18.474,6.631,23.3,11.039a28.211,28.211,0,0,1,3.688,4.064,24.719,24.719,0,0,1,4.693,11.3c.11.726.182,1.432.227,2.12a27.089,27.089,0,0,1-.058,4.207" transform="translate(-1126.79 -611.792)" fill="#49883a"/>
        <g id="Group_39" data-name="Group 39" transform="translate(427.547 198.257)" opacity="0.38">
          <g id="Group_38" data-name="Group 38">
            <g id="Group_37" data-name="Group 37" clip-path="url(#clip-path-14)">
              <path id="Path_40" data-name="Path 40" d="M1684.575,764.643a54.259,54.259,0,0,1-4.868,20.976,69.137,69.137,0,0,1-16.458,22.143c-.032.026-.065.058-.1.084q-.7.652-1.439,1.3c-.142.13-.285.259-.434.389-.609.531-1.232,1.07-1.873,1.6-.045-.687-.117-1.394-.227-2.12a24.722,24.722,0,0,0-4.693-11.3,28.176,28.176,0,0,0-3.688-4.064,70.293,70.293,0,0,1-1.815-7.137,34.721,34.721,0,0,1,4.674,3.235,28.663,28.663,0,0,1,2.606,2.424c4.051-10.6,12.212-21.449,28.313-27.536" transform="translate(-1648.982 -764.643)" fill="#27481f"/>
            </g>
          </g>
        </g>
        <g id="Group_42" data-name="Group 42" transform="translate(431.057 231.335)" opacity="0.2">
          <g id="Group_41" data-name="Group 41">
            <g id="Group_40" data-name="Group 40" clip-path="url(#clip-path-15)">
              <path id="Path_41" data-name="Path 41" d="M1669.372,909.843a.221.221,0,0,1-.006.065c-.013.162-.026.318-.046.467-.013.071-.019.143-.026.214-.013.123-.026.24-.045.357-.045.357-.1.687-.149,1-.039.207-.071.408-.11.6a19.4,19.4,0,0,1-.732,2.781,40.265,40.265,0,0,1-5.309-.006,63.259,63.259,0,0,1,.726-19.446c.233-1.2.512-2.424.836-3.662a24.722,24.722,0,0,1,4.693,11.3c.11.726.182,1.432.227,2.12a27.122,27.122,0,0,1-.058,4.207" transform="translate(-1662.517 -892.218)" fill="#27481f"/>
            </g>
          </g>
        </g>
        <path id="Path_42" data-name="Path 42" d="M1630.286,1135.768l-7.6,49.769a11.363,11.363,0,0,1-11.233,9.645h-22.83a11.378,11.378,0,0,1-11.233-9.645l-7.6-49.769Z" transform="translate(-1162.77 -841.286)" fill="#fbc343"/>
        <path id="Path_43" data-name="Path 43" d="M1680.221,820.1s-8.331-49.408,44.652-56.531c0,0,3.324,54.141-44.652,56.531" transform="translate(-1244.221 -565.592)" fill="#49883a"/>
        <g id="Group_45" data-name="Group 45" transform="translate(415.057 294.482)" opacity="0.4">
          <g id="Group_44" data-name="Group 44">
            <g id="Group_43" data-name="Group 43" clip-path="url(#clip-path-16)">
              <path id="Path_44" data-name="Path 44" d="M1653.267,1135.768l-7.6,49.769a11.363,11.363,0,0,1-11.234,9.645H1611.6a11.357,11.357,0,0,1-10.793-7.811c29.642-4.751,37.589-35.268,39.2-51.6Z" transform="translate(-1600.808 -1135.768)" fill="#c89b35"/>
            </g>
          </g>
        </g>
        <g id="Group_48" data-name="Group 48" transform="translate(115.438 343.873)" opacity="0.15">
          <g id="Group_47" data-name="Group 47">
            <g id="Group_46" data-name="Group 46" clip-path="url(#clip-path-17)">
              <path id="Path_45" data-name="Path 45" d="M687.148,1337.267c0-6.079-54.156-11.007-120.96-11.007s-120.96,4.928-120.96,11.007c0,4.931,35.629,9.1,84.736,10.5,5.348,8.773-3.579,19.267-10.42,23.052-12.014.6-20.636,1.936-19.278,4.788,6.42,13.483,60.985-.864,60.985-.864s21.336,1.326,21.336-.7c0-.934-3.758-1.786-9.938-2.434l.457-.027-23.035-23.407q7.91.1,16.117.1c66.8,0,120.96-4.928,120.96-11.007" transform="translate(-445.228 -1326.26)" fill="#1f3c88"/>
            </g>
          </g>
        </g>
        <path id="Path_46" data-name="Path 46" d="M662.247,866.428c-1.595,26.311-14.857,52.6-36.6,67.069-25.915,17.249-62.149,13.431-91.662,15.628-25.513,1.9-51.221,3.533-76.74.817-20.911-2.23-42-10.514-51.992-30.816-10.008-20.347-11.091-47.383-1.083-67.976a65.98,65.98,0,0,1,12.484-17.508c.817-.836,1.666-1.653,2.528-2.45.583-.538,1.173-1.07,1.776-1.588.92-.8,1.867-1.575,2.826-2.334.318-.247.635-.493.959-.739s.642-.486.966-.726.648-.48.979-.713l.739-.525q.613-.437,1.245-.856a86.82,86.82,0,0,1,11.706-6.625,93.236,93.236,0,0,1,12.082-4.7c13.424-4.168,27.445-5.646,41.3-7.468,29.4-3.857,59.323-5.172,88.952-5.153,24.178.007,51.4,3.624,67.568,24.379,9.127,11.719,12.88,27.3,11.966,42.282" transform="translate(-294.204 -592.403)" fill="#ee6f57"/>
        <path id="Path_47" data-name="Path 47" d="M1226.647,851.918s6.236-5.858,9.541-9.249-3.906-3.5-7.46.725a9.25,9.25,0,0,0-2.082,8.524" transform="translate(-908.378 -622.33)" fill="#f9b384"/>
        <path id="Path_48" data-name="Path 48" d="M496.007,866.568a86.837,86.837,0,0,0-11.706,6.625q-.632.418-1.245.856l-.739.525c-.331.234-.655.473-.979.713s-.648.48-.966.726-.642.492-.959.739q-1.42,1.128-2.787,2.314l-.039.02c-.6.518-1.193,1.05-1.776,1.588-.862.8-1.711,1.614-2.528,2.45a1.652,1.652,0,0,0,1.254,1.5c4.865.984,7.3,5.626,11.223,8.265a10.769,10.769,0,0,0,9.643,1.373c-3.545,7.508-5.5,14.956-3.97,23.36a29.95,29.95,0,0,0,2.374,7.352c-4.556-3.384-8.945-10.633-10.75-17.984a1.945,1.945,0,0,0-3.777.928c2.234,9.1,7.923,17.846,13.834,21.265a12.694,12.694,0,0,0,4.252,1.571,29.745,29.745,0,0,0,3.914,4.143l8.738,2.444,7.13-46.022Z" transform="translate(-349.83 -641.884)" fill="#b35341"/>
        <path id="Path_49" data-name="Path 49" d="M535.067,663.031a188.6,188.6,0,0,1-37.89-19.5,14.637,14.637,0,0,1-6.14-14.561l9.316-54.3a16.751,16.751,0,0,1,9.877-12.575,165.653,165.653,0,0,1,42.338-11.847,101.941,101.941,0,0,1,16.367.324c6.037.6,19.857,4.668,28.642,7.4a17.025,17.025,0,0,1,10.828,10.1c3.683,9.495,9.667,25.528,11.576,34.193,6.59,29.926,5.51,27.711,5.51,27.711L632.3,676l-72.274,4.051-18.474-8.427Z" transform="translate(-363.564 -407.441)" fill="#708cd5"/>
        <path id="Path_50" data-name="Path 50" d="M720.612,326.543s-6.4-13.126-23.416-7.13c-12.316-2.674-21.714,11.911-12.64,31.762l17.1,3.97Z" transform="translate(-504.383 -235.433)" fill="#102048"/>
        <path id="Path_51" data-name="Path 51" d="M732.756,494.519v23.219a9.843,9.843,0,0,1-9.84,9.84,13.334,13.334,0,0,1-13.333-13.333V494.519Z" transform="translate(-525.603 -366.299)" fill="#f9b384"/>
        <path id="Path_52" data-name="Path 52" d="M749.885,529.854V542.52c-10.326.052-17.177-13.3-17.177-13.3Z" transform="translate(-542.732 -392.002)" fill="#e28b6d"/>
        <path id="Path_53" data-name="Path 53" d="M737.879,394.839a44.8,44.8,0,0,1-2.787,9.405c-2.23,5.088-5.633,8.965-10.831,9.075-12.167.259-21.553-16.367-21.553-16.367l1.945-22.687,9.237-10.371,25.442,15.719a85.926,85.926,0,0,1-1.452,15.226" transform="translate(-520.51 -269.543)" fill="#f9b384"/>
        <path id="Path_54" data-name="Path 54" d="M699.85,376.42a33.47,33.47,0,0,1,11.263-16.853s12.721,16.61,26.171,8.589,7.616-23.821-4.942-21.391l-14.422-1.62L699.85,350.9l-3.079,14.179Z" transform="translate(-516.113 -255.654)" fill="#102048"/>
        <g id="Group_51" data-name="Group 51" transform="translate(153.317 181.156)" opacity="0.4">
          <g id="Group_50" data-name="Group 50">
            <g id="Group_49" data-name="Group 49" clip-path="url(#clip-path-18)">
              <path id="Path_55" data-name="Path 55" d="M634.51,755.957c-12.256-26.483-27.7-13.843-31.486-23.566-5.3-13.624-4.294-29.036-4.321-33.706l-7.382,41.566s16.481,1.567,22.574,11.49Z" transform="translate(-591.321 -698.685)" fill="#1f3c88"/>
            </g>
          </g>
        </g>
        <path id="Path_56" data-name="Path 56" d="M598.313,695.681c-.46,3.556-1,7.1-1.561,10.636-.545,3.541-1.185,7.065-1.772,10.6q-.923,5.292-1.953,10.566l-1.056,5.269c-.382,1.751-.737,3.507-1.147,5.253l-.536-.095c.214-1.781.483-3.552.725-5.328l.816-5.311q.836-5.308,1.792-10.595c.661-3.521,1.269-7.05,1.973-10.563.688-3.515,1.395-7.027,2.183-10.525Z" transform="translate(-437.238 -515.234)" fill="#1f3c88"/>
        <path id="Path_57" data-name="Path 57" d="M895.995,670.6c.981,4.618,1.886,9.25,2.774,13.885s1.716,9.28,2.578,13.92q1.234,6.97,2.41,13.949l1.131,6.988c.349,2.334.723,4.664,1.046,7l-.5.089c-.505-2.307-.96-4.622-1.439-6.933l-1.354-6.948q-1.311-6.956-2.56-13.923c-.794-4.651-1.637-9.294-2.391-13.953s-1.52-9.315-2.2-13.988Z" transform="translate(-663.312 -496.724)" fill="#1f3c88"/>
        <g id="Group_54" data-name="Group 54" transform="translate(215.364 195.308)" opacity="0.4">
          <g id="Group_53" data-name="Group 53">
            <g id="Group_52" data-name="Group 52" clip-path="url(#clip-path-19)">
              <path id="Path_58" data-name="Path 58" d="M851.367,753.268c.864,8.427-.432,52.072-20.742,52.72l.216,9.507,31.978-1.945Z" transform="translate(-830.625 -753.268)" fill="#1f3c88"/>
            </g>
          </g>
        </g>
        <path id="Path_59" data-name="Path 59" d="M745.879,935.267c14.422-6.158,17.18-5.928,19.122-5.834,6.644.324,16.205,13.612,16.205,13.612l-.162,2.431H744.583Z" transform="translate(-551.528 -688.427)" fill="#e28b6d"/>
        <rect id="Rectangle_47" data-name="Rectangle 47" width="44.888" height="6.806" transform="translate(204.939 254.672)" fill="#fff"/>
        <path id="Path_60" data-name="Path 60" d="M976.125,809.367h-78l17.5-69.7h78Z" transform="translate(-665.26 -547.883)" fill="#fbc343"/>
        <path id="Path_61" data-name="Path 61" d="M982.577,895.6c-7.717-1.153-32.673-6.338-84.1,24.991l-1.188,4.321,78.216-.8Z" transform="translate(-664.643 -662.623)" fill="#c89b35"/>
        <path id="Path_62" data-name="Path 62" d="M1192.461,957.458c-.486,3.281-.648,8.1-10.817,7.495l-3-1.539,2.836-3.119,6.118-3.12Z" transform="translate(-873.047 -708.997)" fill="#f9b384"/>
        <path id="Path_63" data-name="Path 63" d="M1201.521,924.1s5.565,7.27-.027,9.507a32.168,32.168,0,0,1-11.911,2.188c2.593-7.292,11.019-6.806,11.019-6.806Z" transform="translate(-881.149 -684.5)" fill="#f9b384"/>
        <path id="Path_64" data-name="Path 64" d="M1200.079,905.977s7.67,7.13.54,9.129c-10.069,2.823-13.18,3.025-13.18,3.025-.54-5.348,9.453-8.8,9.453-8.8Z" transform="translate(-879.545 -671.075)" fill="#f9b384"/>
        <path id="Path_65" data-name="Path 65" d="M1197.281,882.018s10.479,6.374.648,9.939-12.154,3.511-12.154,3.511c-.54-5.348,9.993-7.184,9.993-7.184Z" transform="translate(-878.313 -653.328)" fill="#f9b384"/>
        <path id="Path_66" data-name="Path 66" d="M1185.833,921.393s11.425-1.621,14.828-4.375" transform="translate(-878.371 -679.253)" fill="none" stroke="#e28b6d" stroke-miterlimit="10" stroke-width="2.5"/>
        <path id="Path_67" data-name="Path 67" d="M1187.5,940.661s11.884-1.674,15.611-4.267" transform="translate(-879.606 -693.605)" fill="none" stroke="#e28b6d" stroke-miterlimit="10" stroke-width="2.5"/>
        <path id="Path_68" data-name="Path 68" d="M1189.583,964.345s7.049.243,11.019-1.7" transform="translate(-881.149 -713.049)" fill="none" stroke="#e28b6d" stroke-miterlimit="10" stroke-width="2.5"/>
        <path id="Path_69" data-name="Path 69" d="M762.708,1307.1c1.188-.648,19.986,3.457,40.836-11.992l-26.9-7.67Z" transform="translate(-564.953 -953.629)" fill="#102048"/>
        <path id="Path_70" data-name="Path 70" d="M888.022,1005.627c.894-1.277,1.666-3.157.538-4.233-1.173-1.128-3.092-.136-4.324.927a51.9,51.9,0,0,0-5.963,6.093l-45.413,8.439-62.227,15.122,10.7,13.656c31.114,2.269,48.834,2.852,68.305-.584,9.925-1.751,18.8-3.557,25.414-8.95,1.575-1.29,3.066-3.455,2.042-5.211-.694-1.187-2.133-1.5-3.578-1.485a45.934,45.934,0,0,0,9.619-3.429c1.368-.661,2.891-1.7,2.859-3.215a2.814,2.814,0,0,0-1.912-2.4,7.427,7.427,0,0,0-3.209-.279,43.9,43.9,0,0,0-12.147,2.683c7.091-4.952,14.306-10.079,19.3-17.138m-19.394,17.2c0-.013.007-.019.019-.032a.255.255,0,0,0,.065-.026c-.026.02-.058.039-.084.058" transform="translate(-570.824 -741.382)" fill="#b35341"/>
        <path id="Path_71" data-name="Path 71" d="M821.458,963.2s60.607-28.845,80.377-27.548,19.122,25.928,11.668,36.623-24.956,24.956-89.451,20.742Z" transform="translate(-608.471 -693.02)" fill="#102048"/>
        <path id="Path_72" data-name="Path 72" d="M756.735,1308.26c-3.28.927-7.934,1.154-14.338.136,0,0-8.3,2.152-16.464,3.844-5.529,1.147-10.993,2.081-13.787,1.99-.24-.007-.48-.019-.726-.039-5.361-.382-12.115-3.176-15.7-7.169a.064.064,0,0,0-.026-.032,9.988,9.988,0,0,1-2.133-3.558c-1.945-6.054,2.165-13.4,24.418-11.888,0,0,7.344-1.724,9.075-7.13s-11.019-31.327-11.019-31.327l18.15-12.316,17.825,19.77s2.7,17.825,2.7,23.659c0,0,7.558,10.806,8.641,15.557.694,3.034-.823,6.864-6.618,8.5" transform="translate(-513.419 -919.062)" fill="#d3dfff"/>
        <path id="Path_73" data-name="Path 73" d="M544.855,858.748c2.079-.8,4.2-1.446,6.339-2.041,1.072-.293,2.151-.567,3.25-.782q.823-.166,1.665-.283c.283-.038.564-.067.858-.09a6.163,6.163,0,0,1,.909.017,26.772,26.772,0,0,1,6.536,1.751c2.086.795,4.127,1.684,6.132,2.647s3.968,2.01,5.893,3.121,3.817,2.28,5.658,3.528a61,61,0,0,1,10.2,8.562l-.384.386q-2.444-2.211-5.09-4.173c-1.75-1.322-3.561-2.563-5.414-3.738a111.73,111.73,0,0,0-11.46-6.46c-1.965-.973-3.966-1.872-6-2.674a29.644,29.644,0,0,0-6.18-1.853,5.132,5.132,0,0,0-.745-.043c-.256.012-.526.033-.791.061-.534.059-1.071.135-1.607.229-1.073.187-2.148.405-3.219.646-2.14.487-4.274,1.055-6.368,1.7Z" transform="translate(-403.585 -633.717)" fill="#1f3c88"/>
        <path id="Path_74" data-name="Path 74" d="M584.606,1155.329c7.292-.486,14.459.036,19.662-1.783,5.564-1.945,20.094-.648,20.094-.648l-7.994-11.506-32.41,8.1Z" transform="translate(-432.55 -845.452)" fill="#b35341"/>
        <path id="Path_75" data-name="Path 75" d="M572.37,948.27c-7.454-11.992-7.454-35.651,1.945-46.346,10.742-12.224,33.706-16.853,45.7-2.593s34.03,66.44,38.568,101.767c0,0-24.307-8.1-40.837,11.992,0,0-21.715-49.587-26.252-67.737l-12.316,9.723Z" transform="translate(-419.99 -659.622)" fill="#1f3c88"/>
        <path id="Path_76" data-name="Path 76" d="M505.282,1101.361s-3.241-1.188-7.778,1.837c0,0-35.435-.756-43.321,7.238s-1.837,18.69,9.723,19.879c9.7,1,28.535-6.529,34.338-8.974a11.484,11.484,0,0,1,3.707-.878l9.6-.628Z" transform="translate(-333.779 -815.629)" fill="#d3dfff"/>
        <path id="Path_77" data-name="Path 77" d="M686.952,450.537s-2.377-7.877-7.6-5.907-2.444,12.222,7.877,15.074Z" transform="translate(-501.298 -329.111)" fill="#f9b384"/>
        <path id="Path_78" data-name="Path 78" d="M693.668,631a37.636,37.636,0,0,0,8.248,4.5,24.359,24.359,0,0,0,9.074,1.712,20.067,20.067,0,0,0,8.875-2.2l1.035-.526c.339-.187.65-.422.977-.63a15.09,15.09,0,0,0,1.89-1.366l.911-.739.457-.369c.148-.128.28-.274.421-.41q.83-.834,1.684-1.655l.388.326q-.765.925-1.558,1.838c-.134.151-.258.31-.4.454l-.439.416-.881.833a15.957,15.957,0,0,1-1.9,1.515c-.331.234-.647.495-.993.708L720.4,636A19.48,19.48,0,0,1,711,638.489a24,24,0,0,1-9.5-1.981,31.165,31.165,0,0,1-8.151-5.111Z" transform="translate(-513.583 -466.138)" fill="#1f3c88"/>
        <path id="Path_79" data-name="Path 79" d="M639.334,1022.21l2.809,9.827c.955,3.269,1.848,6.554,2.847,9.807.977,3.259,1.95,6.519,2.976,9.761.513,1.621,1.019,3.245,1.581,4.849.274.8.522,1.62.813,2.418s.572,1.6.847,2.407l-.467.2q-1.086-2.324-2.042-4.708c-.637-1.588-1.217-3.2-1.8-4.8-1.151-3.22-2.169-6.482-3.134-9.758-.935-3.285-1.86-6.571-2.672-9.887s-1.6-6.637-2.244-9.993Z" transform="translate(-473.203 -757.171)" fill="#102048"/>
        <g id="Group_57" data-name="Group 57" transform="translate(206.586 374.454)" opacity="0.1">
          <g id="Group_56" data-name="Group 56">
            <g id="Group_55" data-name="Group 55" clip-path="url(#clip-path-20)">
              <path id="Path_80" data-name="Path 80" d="M833.5,1458.949c-3.28.927-7.934,1.154-14.338.136,0,0-13.722,3.513-22.392,4.891,8.913-1.783,21.877-12.8,20.418-19.77,12.8,4.213,16.286,10.614,16.312,14.743" transform="translate(-796.771 -1444.206)" fill="#1f3c88"/>
            </g>
          </g>
        </g>
        <g id="Group_60" data-name="Group 60" transform="translate(181.225 386.313)" opacity="0.4">
          <g id="Group_59" data-name="Group 59">
            <g id="Group_58" data-name="Group 58" clip-path="url(#clip-path-21)">
              <path id="Path_81" data-name="Path 81" d="M726.584,1494.047a12.931,12.931,0,0,1-6.7,4.109,18.31,18.31,0,0,1-4.148.6c-5.361-.383-12.115-3.176-15.7-7.169a.064.064,0,0,0-.026-.032,15.288,15.288,0,0,1-1.05-1.614,26.125,26.125,0,0,0,6.216,4.336,24.69,24.69,0,0,0,3.442,1.4c.577.22,1.18.35,1.776.519a15.531,15.531,0,0,0,1.815.363,20.059,20.059,0,0,0,14.377-2.515" transform="translate(-698.958 -1489.944)" fill="#1f3c88"/>
            </g>
          </g>
        </g>
        <path id="Path_82" data-name="Path 82" d="M690.957,458.7a5.325,5.325,0,0,0-.844-1.971,5.924,5.924,0,0,0-1.429-1.542,1.59,1.59,0,0,0-1.657-.305,3.752,3.752,0,0,0-1.318,1.562l-.359-.125a3.243,3.243,0,0,1,1.244-2.173,1.942,1.942,0,0,1,1.413-.29,3.029,3.029,0,0,1,1.24.544,5.363,5.363,0,0,1,1.585,1.915,4.155,4.155,0,0,1,.506,2.393Z" transform="translate(-507.653 -336.16)" fill="#e28b6d"/>
        <path id="Path_83" data-name="Path 83" d="M817.369,465.168c-.228,1.118-1.07,1.891-1.881,1.725a1.853,1.853,0,0,1-1.056-2.324c.228-1.118,1.07-1.89,1.881-1.725a1.853,1.853,0,0,1,1.056,2.324" transform="translate(-603.224 -342.821)" fill="#102048"/>
        <path id="Path_84" data-name="Path 84" d="M768.657,463.424c-.184,1.126-.995,1.931-1.812,1.8s-1.331-1.154-1.147-2.28.995-1.931,1.812-1.8,1.33,1.154,1.147,2.28" transform="translate(-567.141 -341.567)" fill="#102048"/>
        <path id="Path_85" data-name="Path 85" d="M793.386,475.754c.077.92.114,1.836.124,2.733a1.631,1.631,0,0,0,.482.948,10.1,10.1,0,0,1,.942,1.083,2.239,2.239,0,0,1,.335.786,2.8,2.8,0,0,1,.055.825,2.724,2.724,0,0,1-.6,1.507,2.071,2.071,0,0,1-.667.532,1.9,1.9,0,0,1-.827.174,2.683,2.683,0,0,1-1.426-.516l.18-.335a2.55,2.55,0,0,0,1.209.172,1.191,1.191,0,0,0,.855-.549,1.981,1.981,0,0,0,.072-2.068c-.2-.32-.531-.62-.845-1.016a2.353,2.353,0,0,1-.6-1.527c.07-.941.182-1.864.326-2.782Z" transform="translate(-586.509 -352.376)" fill="#e28b6d"/>
        <path id="Path_86" data-name="Path 86" d="M757.591,450.089a6.072,6.072,0,0,1,1.82-1.25,4.813,4.813,0,0,1,2.256-.431,4.1,4.1,0,0,1,2.182.8,5.206,5.206,0,0,1,1.457,1.688l-.3.233a10.557,10.557,0,0,0-1.618-1.2,4.235,4.235,0,0,0-1.789-.553,7.521,7.521,0,0,0-3.785,1.023Z" transform="translate(-561.163 -332.138)" fill="#102048"/>
        <path id="Path_87" data-name="Path 87" d="M808.457,453.421a2.77,2.77,0,0,1,1.42-1.558,4.307,4.307,0,0,1,2.068-.462,4.231,4.231,0,0,1,2.045.562,3.31,3.31,0,0,1,1.4,1.546l-.318.208a4.572,4.572,0,0,0-3.152-1.349,3.827,3.827,0,0,0-3.122,1.221Z" transform="translate(-598.841 -334.36)" fill="#102048"/>
        <path id="Path_88" data-name="Path 88" d="M774.325,517.9l8.6.613s-4.8,6.362-8.6-.613" transform="translate(-573.558 -383.617)" fill="#fff"/>
        <g id="Group_63" data-name="Group 63" transform="translate(211.743 125.251)" opacity="0.4">
          <g id="Group_62" data-name="Group 62">
            <g id="Group_61" data-name="Group 61" clip-path="url(#clip-path-22)">
              <path id="Path_89" data-name="Path 89" d="M822.284,483.114a44.807,44.807,0,0,1-2.787,9.405,4.964,4.964,0,0,1,2.133-9.451,4.385,4.385,0,0,1,.655.045" transform="translate(-816.658 -483.069)" fill="#ee6f57"/>
            </g>
          </g>
        </g>
        <g id="Group_66" data-name="Group 66" transform="translate(190.517 124.116)" opacity="0.4">
          <g id="Group_65" data-name="Group 65">
            <g id="Group_64" data-name="Group 64" clip-path="url(#clip-path-23)">
              <path id="Path_90" data-name="Path 90" d="M744.731,483.655a4.969,4.969,0,1,1-4.97-4.97,4.97,4.97,0,0,1,4.97,4.97" transform="translate(-734.792 -478.686)" fill="#ee6f57"/>
            </g>
          </g>
        </g>
        <path id="Path_91" data-name="Path 91" d="M315,297.595a34.029,34.029,0,1,0-12.926,8.916l18.269,7.457Z" transform="translate(-189.403 -178.336)" fill="#fff"/>
        <path id="Path_92" data-name="Path 92" d="M315,297.595a34.029,34.029,0,1,0-12.926,8.916l18.269,7.457Z" transform="translate(-189.403 -178.336)" fill="none" stroke="#8cbfbe" stroke-miterlimit="10" stroke-width="3.5"/>
        <path id="Path_93" data-name="Path 93" d="M321.6,364.8a3.634,3.634,0,1,1-3.634-3.634A3.634,3.634,0,0,1,321.6,364.8" transform="translate(-232.832 -267.522)" fill="#8cbfbe"/>
        <path id="Path_94" data-name="Path 94" d="M380.211,364.8a3.634,3.634,0,1,1-3.634-3.634,3.634,3.634,0,0,1,3.634,3.634" transform="translate(-276.247 -267.522)" fill="#8cbfbe"/>
        <path id="Path_95" data-name="Path 95" d="M438.822,364.8a3.634,3.634,0,1,1-3.634-3.634,3.634,3.634,0,0,1,3.634,3.634" transform="translate(-319.661 -267.522)" fill="#8cbfbe"/>
        <path id="Path_96" data-name="Path 96" d="M609.055,1.746H542.118a6.922,6.922,0,0,0-6.9,6.9V37.372a6.922,6.922,0,0,0,6.9,6.9H548.3l10.047,15.1,2.988-15.1h47.722a6.922,6.922,0,0,0,6.9-6.9V8.648a6.922,6.922,0,0,0-6.9-6.9" transform="translate(-396.445 -1.292)" fill="#fff"/>
        <path id="Path_97" data-name="Path 97" d="M609.055,1.746H542.118a6.922,6.922,0,0,0-6.9,6.9V37.372a6.922,6.922,0,0,0,6.9,6.9H548.3l10.047,15.1,2.988-15.1h47.722a6.922,6.922,0,0,0,6.9-6.9V8.648A6.922,6.922,0,0,0,609.055,1.746Z" transform="translate(-396.445 -1.292)" fill="none" stroke="#8cbfbe" stroke-miterlimit="10" stroke-width="3.5"/>
        <rect id="Rectangle_52" data-name="Rectangle 52" width="57.338" height="3.294" transform="translate(150.472 10.91)" fill="#8cbfbe"/>
        <rect id="Rectangle_53" data-name="Rectangle 53" width="57.338" height="3.294" transform="translate(150.472 19.594)" fill="#c6eae9"/>
        <rect id="Rectangle_54" data-name="Rectangle 54" width="57.338" height="3.294" transform="translate(150.472 28.278)" fill="#c6eae9"/>
      </g>
    </g>
  </g>
</svg>
