<svg id="Outline" xmlns="http://www.w3.org/2000/svg" xmlns:xlink="http://www.w3.org/1999/xlink" width="84.164" height="84.164" viewBox="0 0 84.164 84.164">
  <defs>
    <linearGradient id="linear-gradient" x1="0.5" x2="0.5" y2="1" gradientUnits="objectBoundingBox">
      <stop offset="0" stop-color="#02c4ff"/>
      <stop offset="1" stop-color="#00556f"/>
    </linearGradient>
  </defs>
  <path id="Path_8278" data-name="Path 8278" d="M28.088,50.286a11.24,11.24,0,0,1-10.685,7.8,1.4,1.4,0,0,1-1.4-1.4V34.235a11.217,11.217,0,0,1,9.416-11.074A15.484,15.484,0,0,1,38.444,16h2.805a15.448,15.448,0,0,1,15.43,15.43v3.56a5.609,5.609,0,0,1-2.805,10.467h-.282a14.067,14.067,0,0,1-6.731,9.335v6.1h2.805V58.082a5.617,5.617,0,0,1,5.611-5.611H94.553a5.617,5.617,0,0,1,5.611,5.611V83.331a5.617,5.617,0,0,1-5.611,5.611H85.128l2.1,8.416h12.932v2.805H16V97.358h2.809A6.976,6.976,0,0,1,17.4,93.15V69.3a8.426,8.426,0,0,1,8.416-8.416h7.014v-6.1A14.13,14.13,0,0,1,28.088,50.286Zm-5.074-10.44a2.809,2.809,0,0,0,2.805,2.805V37.041a2.809,2.809,0,0,0-2.805,2.805Zm-4.208-5.611V55.159a8.43,8.43,0,0,0,7.014-8.3v-1.4A5.609,5.609,0,0,1,23.014,34.99V31.43a15.463,15.463,0,0,1,.791-4.882,8.4,8.4,0,0,0-5,7.687ZM53.874,31.43A12.639,12.639,0,0,0,41.249,18.805H38.444A12.672,12.672,0,0,0,27.506,25.12l-.023.041a12.626,12.626,0,0,0-1.664,6.269v2.805h.608l3.8-6.333a1.4,1.4,0,0,1,1.783-.555c.123.055,12.275,5.547,20.6,6.684l.051.006c.421.057.827.1,1.214.135Zm2.805,8.416a2.809,2.809,0,0,0-2.805-2.805v5.611a2.809,2.809,0,0,0,2.805-2.805Zm-5.611,2.805V36.63C43.953,35.405,35.123,31.761,32,30.408l-3.371,5.619v6.625a11.222,11.222,0,0,0,22.444,0ZM94.553,86.136a2.809,2.809,0,0,0,2.805-2.805V58.082a2.809,2.809,0,0,0-2.805-2.805H55.276a2.809,2.809,0,0,0-2.805,2.805V83.331a2.808,2.808,0,0,0,2.805,2.805H69.118l-1.206-9.645A1.4,1.4,0,0,1,69.3,74.915H80.526a1.4,1.4,0,0,1,1.361,1.063l2.54,10.159Zm-39.419,2.8a5.623,5.623,0,0,1-.8-.078c-.146.2-.3.4-.456.6v7.9H57.61Zm14.685,2.809-.351-2.805H68.4l.671,2.805ZM84.34,97.358,79.43,77.72H70.893l2.455,19.638Zm-13.82,0-.351-2.805H65.1v2.805Zm-8.23,0V93.15a1.4,1.4,0,0,1,1.4-1.4h2.49l-.671-2.805H58.059l2.475,8.416ZM37.4,86.181l4.058.812-4.414-6.8a1.575,1.575,0,0,0-2.12-.455,1.4,1.4,0,0,0-.657.884,1.307,1.307,0,0,0,.184,1.014Zm8.055,10.726.835.186.466-1.939-1.3-2Zm-2.805.452V90.092l-5.414-1.083-5.18,2.59a1.4,1.4,0,0,1-.782.14l-11.067-1.23V93.15a4.213,4.213,0,0,0,4.208,4.208ZM23.075,81.928H20.208v5.758l4.722.525A12,12,0,0,1,23.075,81.928Zm2.744-18.235A5.617,5.617,0,0,0,20.208,69.3v9.819h3.184a12.056,12.056,0,0,1,4.369-6.717l1.725,2.212A9.078,9.078,0,0,0,28.27,88.01a1.4,1.4,0,0,1,.316.607l2.588.288,3.513-1.756L32.1,83.165a4.089,4.089,0,0,1-.565-3.174,4.18,4.18,0,0,1,1.946-2.659A4.405,4.405,0,0,1,39.4,78.664L49.44,94.13a1.4,1.4,0,0,1,.187,1.092l-.514,2.136h1.955V88.942a1.4,1.4,0,0,1,.355-.932q.152-.171.3-.348c-.061-.05-.123-.1-.182-.15a5.618,5.618,0,0,1-1.87-4.181V64.905a11.294,11.294,0,0,1-6.649,5.345,11.008,11.008,0,0,1-1.2.283,11.226,11.226,0,0,1-12.367-6.841Zm7.014,0h-.267A8.474,8.474,0,0,0,39.846,67.9a8.377,8.377,0,0,0,1.476-.129,8.22,8.22,0,0,0,.9-.212,8.471,8.471,0,0,0,4.9-3.867H46.86a2.809,2.809,0,0,1-2.805-2.805V56.033a14.034,14.034,0,0,1-8.416,0v4.854a2.809,2.809,0,0,1-2.805,2.805Z" transform="translate(-16 -16)" fill="url(#linear-gradient)"/>
  <path id="Path_8279" data-name="Path 8279" d="M314.1,128a2.1,2.1,0,1,1-2.1,2.1A2.1,2.1,0,0,1,314.1,128Z" transform="translate(-283.945 -108.362)" fill="url(#linear-gradient)"/>
  <path id="Path_8280" data-name="Path 8280" d="M386.1,132.208a2.1,2.1,0,1,1,2.1-2.1A2.1,2.1,0,0,1,386.1,132.208Z" transform="translate(-368.57 -108.362)" fill="url(#linear-gradient)"/>
  <path id="Path_8281" data-name="Path 8281" d="M336,176h2.805a1.4,1.4,0,0,0,2.805,0h2.805A4.208,4.208,0,0,1,336,176Z" transform="translate(-316.362 -147.945)" fill="url(#linear-gradient)"/>
  <rect id="Rectangle_73" data-name="Rectangle 73" width="5.599" height="2.488" transform="translate(72.786 42.303)" fill="url(#linear-gradient)"/>
  <rect id="Rectangle_74" data-name="Rectangle 74" width="5.599" height="2.488" transform="translate(64.698 42.303)" fill="url(#linear-gradient)"/>
  <rect id="Rectangle_75" data-name="Rectangle 75" width="5.599" height="2.488" transform="translate(55.989 42.303)" fill="url(#linear-gradient)"/>
  <rect id="Rectangle_76" data-name="Rectangle 76" width="6.221" height="2.488" transform="translate(47.28 42.303)" fill="url(#linear-gradient)"/>
  <rect id="Rectangle_77" data-name="Rectangle 77" width="5.599" height="2.488" transform="translate(39.192 42.303)" fill="url(#linear-gradient)"/>
</svg>
