<svg version="1.2" xmlns="http://www.w3.org/2000/svg" viewBox="0 0 600 400" width="600" height="400">
	<title>vector-office-character-illustration-ai</title>
	<style>
		.s0 { fill: #44b4e3 } 
		.s1 { fill: #ffffff } 
		.s2 { fill: none;stroke: #000000;stroke-linecap: round;stroke-linejoin: round;stroke-width: 1.2 } 
		.s3 { fill: #000000 } 
		.s4 { fill: #df9a6a } 
		.s5 { fill: #00a1d0 } 
		.s6 { fill: #053151 } 
		.s7 { fill: #442418 } 
		.s8 { fill: none;stroke: #2e1910;stroke-linecap: round;stroke-linejoin: round;stroke-width: 1.8 } 
		.s9 { fill: none;stroke: #00a1d0;stroke-linecap: round;stroke-linejoin: round;stroke-width: 1.2 } 
		.s10 { fill: #f8b97d } 
		.s11 { fill: #133250 } 
		.s12 { fill: none;stroke: #df9a6a;stroke-linecap: round;stroke-linejoin: round;stroke-width: 1.2 } 
		.s13 { fill: #0a609e } 
		.s14 { fill: #074978 } 
		.s15 { fill: #06416b } 
		.s16 { fill: #064069 } 
		.s17 { fill: #074470 } 
		.s18 { fill: #1e2e34 } 
		.s19 { fill: #2f4148 } 
		.s20 { fill: #233036 } 
	</style>
	<g id="bg">
	</g>
	<g id="window">
		<g id="&lt;Group&gt;">
			<g id="&lt;Group&gt;">
				<g id="&lt;Group&gt;">
				</g>
			</g>
		</g>
	</g>
	<g id="conditioner">
		<g id="&lt;Group&gt;">
			<circle id="&lt;Path&gt;" class="s0" cx="307.5" cy="-61.7" r="39.7"/>
			<circle id="&lt;Path&gt;" class="s1" cx="307.9" cy="-61.7" r="34.5"/>
			<path id="&lt;Path&gt;" class="s2" d="m306.4-86.2v24.5"/>
			<path id="&lt;Path&gt;" class="s2" d="m318.7-63.2h-14.6"/>
		</g>
	</g>
	<g id="recicle">
	</g>
	<g id="plant">
		<g id="&lt;Group&gt;">
		</g>
	</g>
	<g id="chair">
		<g id="&lt;Group&gt;">
			<rect id="&lt;Path&gt;" class="s3" x="294" y="98.9" width="111" height="139.8" rx="13"></rect>
			<g id="&lt;Group&gt;">
				<path id="&lt;Path&gt;" class="s3" d="m284.7 238.1c-1.1 0-2.1-0.9-2.1-2.1v-41.4c0-1.1 1-2.1 2.1-2.1c1.2 0 2.1 1 2.1 2.1v41.4c0 1.2-0.9 2.1-2.1 2.1z"/>
			</g>
			<path id="&lt;Path&gt;" class="s3" d="m294 195h-18.6v-6.7c0-5.1 4.2-9.3 9.3-9.3c5.2 0 9.3 4.2 9.3 9.3z"/>
			<g id="&lt;Group&gt;">
				<path id="&lt;Path&gt;" class="s3" d="m342 275.1h15.1v79h-15.1z"/>
				<path id="&lt;Path&gt;" class="s3" d="m401.5 366.4h-104.2v-5.4c0-4.6 3.8-8.4 8.5-8.4h87.2c4.7 0 8.5 3.8 8.5 8.4z"/>
				<path id="&lt;Path&gt;" class="s3" d="m337.6 252h23.9v60.4h-23.9z"/>
				<ellipse id="&lt;Path&gt;" class="s3" cx="305.6" cy="370.6" rx="7" ry="7.3"/>
				<ellipse id="&lt;Path&gt;" class="s3" cx="393.3" cy="370.6" rx="7" ry="7.3"/>
				<rect id="&lt;Path&gt;" class="s3" x="275.4" y="237.8" width="148.3" height="18.8" rx="9"></rect>
				<path id="&lt;Path&gt;" class="s3" d="m414.4 240.8c-1.2 0-2.1-0.9-2.1-2.1v-43.5c0-1.1 0.9-2 2.1-2c1.1 0 2 0.9 2 2v43.5c0 1.2-0.9 2.1-2 2.1z"/>
			</g>
		</g>
	</g>
	<g id="R_arm">
		<path id="&lt;Path&gt;" class="s4" d="m331.6 124.5l-27.8 62.4c-3 6.7-11.6 8.7-17.3 4.1c-3.7-3-5.1-8-3.5-12.5l3.2-8.6l15.9-36.8"/>
		<path id="&lt;Path&gt;" class="s4" d="m298.9 175c2.2 3 2.6 6.9 2.8 10.6c0.1 1.5 0.1 3-0.7 4.2c-1 1.5-3 1.9-4.8 2.1c-4.9 0.7-9.9 0.8-14.8 0.4c-1.6-0.1-3.3-0.3-4.8-0.8c-1.5-0.5-2.9-1.5-3.7-2.9c-0.9-1.4-1-3.1-1-4.7c0-2.3 0.3-4.6 0.9-6.9c0-0.2 0.1-0.4 0.2-0.5c0.2-0.2 0.4-0.2 0.5-0.2q3.9-1 7.9-1.7c4.7-1 9.5-1.7 14.2-0.7c1.3 0.2 2.6 0.7 3.2 1.9"/>
		<path id="&lt;Path&gt;" class="s4" d="m281.7 183.6c0.9 2.7 1 5.7 0.4 8.4c-7.5 0.5-15 0.5-22.4-0.1c-0.3 0-0.5 0-0.8-0.2c-0.3-0.2-0.4-0.6-0.5-1c-0.6-2.7-0.8-5.7-0.1-8.4c0.6-2.8 2.1-5.4 4.4-7.1c2.3-1.8 5.2-2.5 8.1-2.4c2.9 0.1 5.7 0.9 8.4 2"/>
		<path id="&lt;Path&gt;" class="s5" d="m333.2 122.1l-12 29.5c-3.1-1.1-22-7.4-25.2-7.3q4.3-13.9 8.7-27.8z"/>
	</g>
	<g id="R_leg">
		<g id="&lt;Group&gt;">
			<g id="&lt;Group&gt;">
				<path id="&lt;Path&gt;" class="s6" d="m257 216.1l37.8-12.4c9.2-3.1 19.1 1.9 22.1 11.1c2.9 9-1.7 18.6-10.4 21.9l-37.2 14.2c-9.5 3.7-20.2-1.1-23.8-10.7c-3.7-9.5 1.1-20.2 10.6-23.8c0.3-0.1 0.6-0.2 0.9-0.3z"/>
			</g>
		</g>
		<g id="&lt;Group&gt;">
			<g id="&lt;Group&gt;">
				<path id="&lt;Path&gt;" class="s6" d="m279.1 229l38.8 116.7c2.2 6.8-1.4 14.1-8.2 16.3c-6.2 2.1-13-1-15.7-6.9l-51-112c-4.4-9.8-0.1-21.3 9.7-25.7c9.7-4.4 21.2-0.1 25.6 9.6q0.5 1 0.8 2z"/>
			</g>
		</g>
		<g id="&lt;Group&gt;">
			<path id="&lt;Path&gt;" class="s7" d="m318.3 350.4l-0.9 8.8c-0.2 2.1-1.3 4.1-3.1 5.3l-18.1 13.1c-2.1 1.5-4.8 2.2-7.4 1.9l-12.6-1.5c-3.1-0.4-4.6-4.2-2.4-6.6l19.1-21z"/>
			<g id="&lt;Group&gt;">
				<path id="&lt;Path&gt;" class="s8" d="m291.5 354.6l10 1.6"/>
				<path id="&lt;Path&gt;" class="s8" d="m288.6 357.9l10 1.6"/>
				<path id="&lt;Path&gt;" class="s8" d="m285.7 361.2l9.9 1.6"/>
			</g>
		</g>
	</g>
	<g id="L_leg">
		<g id="&lt;Group&gt;">
			<g id="&lt;Group&gt;">
				<g id="&lt;Group&gt;">
					<path id="&lt;Path&gt;" class="s6" d="m327.7 211.2l24-7.5c9.3-2.9 19.1 2.2 22 11.4c2.8 8.8-1.8 18.2-10.2 21.6l-23.4 9.3c-9.5 3.8-20.3-0.8-24.1-10.3c-3.8-9.5 0.9-20.3 10.4-24c0.4-0.2 0.8-0.4 1.3-0.5z"/>
				</g>
			</g>
		</g>
		<g id="&lt;Group&gt;">
			<g id="&lt;Group&gt;">
				<path id="&lt;Path&gt;" class="s6" d="m347.2 229.9l6.9 120.4c0.4 7.1-5.1 13.2-12.2 13.6c-6.6 0.4-12.3-4.4-13.4-10.7l-19.8-119c-1.7-10.6 5.4-20.6 16-22.3c10.5-1.8 20.5 5.3 22.3 15.9q0.2 1.1 0.2 2.1z"/>
			</g>
		</g>
		<g id="&lt;Group&gt;">
			<path id="&lt;Path&gt;" class="s7" d="m354.1 351.9l-0.9 8.7c-0.2 2.2-1.3 4.1-3.1 5.4l-18.1 13c-2.2 1.6-4.8 2.2-7.4 1.9l-12.6-1.5c-3.2-0.4-4.6-4.2-2.4-6.5l19.1-21z"/>
			<g id="&lt;Group&gt;">
				<path id="&lt;Path&gt;" class="s8" d="m326.9 356.6l10 1.6"/>
				<path id="&lt;Path&gt;" class="s8" d="m324 359.9l10 1.6"/>
				<path id="&lt;Path&gt;" class="s8" d="m321.1 363.2l10 1.6"/>
			</g>
		</g>
	</g>
	<g id="torso">
		<path id="&lt;Path&gt;" class="s0" d="m306.1 192.4c0.5-19.4-1.3-49.2-1.8-68.6c-0.1-3.3-0.1-6.7 1.2-9.8c1.6-3.6 5-6.2 8.7-7.7c3.7-1.5 7.7-2.1 11.7-2.6l27.3-2.1c6.6-0.4 13.4 0.1 19.9 1.6c3.8 0.9 7.6 2.2 10.7 4.7c6 5 7.6 13.5 8 21.3c0.5 8.8 0.2 17.7-0.2 26.5c-0.5 12.2-1.1 25.3-1.7 37.5z"/>
		<path id="&lt;Path&gt;" class="s6" d="m358 237.8h-75.6l6.1-32.1l20-13.3h63.2v29.1c0 7.5-6.1 16.3-13.7 16.3z"/>
		<g id="&lt;Group&gt;">
			<path id="&lt;Path&gt;" class="s9" d="m337.6 128.3v15.2"/>
			<circle id="&lt;Path&gt;" class="s5" cx="340.7" cy="130.4" r="1.1"/>
			<circle id="&lt;Path&gt;" class="s5" cx="340.7" cy="135.6" r="1.1"/>
			<circle id="&lt;Path&gt;" class="s5" cx="340.7" cy="140.8" r="1.1"/>
		</g>
		<path id="&lt;Path&gt;" class="s10" d="m351.7 79c0.4 8.2 1.8 24.5 2.7 32.6l-16.8 17.3q-9.4-14.2-9.7-15.3c-1.3-5.3-2.6-14.1-3.5-19.5"/>
		<path id="&lt;Path&gt;" class="s4" d="m326.1 104.3c-0.7-3.7-1.3-7.4-1.7-10.2l26.4-14.7c-4.9 10.8-14.2 19.6-24.7 24.9z"/>
		<path id="&lt;Path&gt;" class="s5" d="m355.1 98.2q1.1 0.1 4.6 2.3l-3.4 25.6l-8.4-7.2l5.2-20.4"/>
		<path id="&lt;Path&gt;" class="s5" d="m330.8 118.2l-7.3 7.3l-3.1-21.2l5.3-2z"/>
	</g>
	<g id="head">
		<path id="&lt;Path&gt;" class="s10" d="m338.6 24.7c10.5 0 18.8 8.9 18.1 19.4l-2.1 31.8c-0.3 2.6-1.6 5-3.7 6.5l-21.3 15.4c-1 0.7-2.2 1.1-3.4 1.1h-8.8c-2.1 0-4.1-1.2-5.1-3.2l-8.7-16.7c-1-2-1.5-4.2-1.5-6.5v-29.7c0-10 8.1-18.1 18.1-18.1z"/>
		<path id="&lt;Path&gt;" class="s1" d="m329.7 78c0.8 3.6-1.4 7.1-4.9 8c-3.6 0.8-7.2-1.3-8.1-4.7z"/>
		<path id="&lt;Path&gt;" class="s6" d="m350.3 22.2c1.5 1.4 2 3.6 1.2 5.4c-1.3 3-3.1 7.3-4 8.9c-0.2 0.4-0.4 0.7-0.8 1c-0.4 0.2-0.9 0.3-1.3 0.3q-9.4 0.9-18.8 1.8c-8.1 0.8-16.9 1.5-23.9-2.7c-3.9-2.4-6.9-6-9.1-10c-2.2-4-3.7-8.4-5.1-12.7c11.8-3.4 24.7-2.8 36.2 1.7q-1.2-2.1-2.4-4.1c10.2 1.1 20.6 3.6 28 10.4z"/>
		<path id="&lt;Path&gt;" class="s6" d="m349.8 27.2c2.7 0.2 5.4 0.8 7.8 1.9c0.4 0.1 0.8 0.3 1 0.6c0.3 0.4 0.2 1 0.2 1.5q-1.4 11-2.7 22q-3.2-0.3-6.3-0.2q0.3-4.1 0.3-8.2c0-0.7-0.1-1.5-0.6-2c-0.4-0.2-0.8-0.3-1.3-0.3q-2.4-0.3-4.9-0.6q1.9-5 3.8-10.1"/>
		<circle id="&lt;Path&gt;" class="s10" cx="353.8" cy="58" r="6.5"/>
		<g id="&lt;Group&gt;">
			<path id="&lt;Path&gt;" class="s4" d="m351.9 59.5c0.5-0.3 0.7-0.8 1.1-1.1q0.6-0.7 1.5-1.1c0.9-0.5 1.7-0.5 2.7-0.6c0.3-0.1 0.3-0.5 0.1-0.6c-1.8-1.1-5.7 1.3-5.5 3.3c0 0.1 0.1 0.2 0.1 0.1z"/>
		</g>
		<g id="&lt;Group&gt;">
			<path id="&lt;Path&gt;" class="s11" d="m301.8 52.2c1.6-1.4 4.3-1.7 6.3-2c2.1-0.4 4.7-0.9 6.9-0.4c0.9 0.3 1 1.8 0 2c-2.2 0.4-4.5 0.1-6.7 0.2c-2 0.2-4.3 1.1-6.3 0.7c-0.3 0-0.4-0.4-0.2-0.5z"/>
		</g>
		<g id="&lt;Group&gt;">
			<path id="&lt;Path&gt;" class="s11" d="m336 52.7c-2 0.4-4.3-0.5-6.3-0.7c-2.2-0.1-4.5 0.2-6.7-0.2c-1-0.2-0.9-1.7 0-2c2.2-0.5 4.7 0 6.9 0.4c2 0.3 4.7 0.6 6.3 2c0.2 0.1 0.1 0.5-0.2 0.5z"/>
		</g>
		<circle id="&lt;Path&gt;" class="s6" cx="309.1" cy="57.8" r="1.6"/>
		<circle id="&lt;Path&gt;" class="s6" cx="329" cy="57.8" r="1.6"/>
		<path id="&lt;Path&gt;" class="s12" d="m320.2 73.5h-5.5l2.9-21.1"/>
	</g>
	<g id="desk">
		<path id="&lt;Path&gt;" class="s13" d="m568.2 207.5h-541.1c-4 0-7.2-3.2-7.2-7.2c0-3.9 3.2-7.1 7.2-7.1h541.1c4 0 7.2 3.2 7.2 7.1c0 4-3.2 7.2-7.2 7.2z"/>
		<path id="&lt;Path&gt;" class="s14" d="m568.2 207.5h-149.6c-3.9 0-7.1-3.2-7.1-7.2c0-3.9 3.2-7.1 7.1-7.1h149.6c4 0 7.2 3.2 7.2 7.1c0 4-3.2 7.2-7.2 7.2z"/>
		<path id="&lt;Path&gt;" class="s14" d="m35.1 207h510.5v19.9h-510.5z"/>
		<path id="&lt;Path&gt;" class="s15" d="m425.6 207h131.6v19.9h-131.6z"/>
		<path id="&lt;Path&gt;" class="s13" d="m45.4 226.9h130.2v152.7h-130.2z"/>
		<path id="&lt;Path&gt;" class="s14" d="m137 226.9h105.4v152.7h-105.4z"/>
		<path id="&lt;Path&gt;" class="s16" d="m242.4 282.6l-105.2-55.7h105.2z"/>
		<path id="&lt;Path&gt;" class="s13" d="m348.6 226.9h130.2v152.7h-130.2z"/>
		<path id="&lt;Path&gt;" class="s14" d="m440.2 226.9h105.4v152.7h-105.4z"/>
		<path id="&lt;Path&gt;" class="s17" d="m545.6 282.6l-105.2-55.7h105.2z"/>
	</g>
	<g id="L_arm">
		<path id="&lt;Path&gt;" class="s10" d="m387.5 112.9l16.9 66.1c1.8 7.2-3.6 14.1-10.9 14c-4.8-0.1-9-3.1-10.5-7.6l-2.9-8.7l-10.4-38.7"/>
		<path id="&lt;Path&gt;" class="s4" d="m362.4 175.4l31.5 0.3c4.9 0.1 8.8 4.2 8.5 9.2c-0.2 4.6-4 8.2-8.7 8.2l-32-0.2z"/>
		<path id="&lt;Path&gt;" class="s10" d="m363.6 192.9h-1.9l0.7-17.5l31.5 0.3c4.9 0.1 8.8 4.2 8.5 9.2c0 1.2-0.3 2.3-0.8 3.3c-1.6-1.6-3.7-2.7-6.2-2.7l-31.5-0.4z"/>
		<path id="&lt;Path&gt;" class="s4" d="m363.1 192.9h-20.8v-9.7c0-5.4 4.4-9.8 9.8-9.8h7.6c5.3 0 9.7 4.4 9.7 9.8v3.4c0 3.5-2.8 6.3-6.3 6.3z"/>
		<path id="&lt;Path&gt;" class="s10" d="m369.4 183.2v3.4q0 1.6 0-1.4c-0.5-3.2-6.2-3.1-11.2-3.1h-7.6c-3.5 0-6.6 1.9-8.3 4.7v-3.6c0-5.4 4.4-9.8 9.8-9.8h7.6c5.3 0 9.7 4.4 9.7 9.8z"/>
		<path id="&lt;Path&gt;" class="s0" d="m397.8 145.2l-25.1 7.5l-8.2-29.1c-1.7-6 1-12.3 6.5-15.1c7.3-3.8 16.3 0 18.6 7.9z"/>
	</g>
	<g id="laptop">
		<g id="&lt;Group&gt;">
			<g id="&lt;Group&gt;">
				<path id="&lt;Path&gt;" class="s18" d="m162.4 99.3h115.6c0.9 0 1.7 0.8 1.7 1.7l12.5 86.9h-119l-12.5-86.9c0-0.9 0.8-1.7 1.7-1.7z"/>
				<path id="&lt;Path&gt;" class="s19" d="m158.7 99.3h115.6c0.9 0 1.7 0.8 1.7 1.7l12.5 86.9h-119l-12.5-86.9c0-0.9 0.8-1.7 1.7-1.7z"/>
				<circle id="&lt;Path&gt;" class="s20" cx="222.7" cy="145.5" r="6.4"/>
				<path id="&lt;Path&gt;" class="s18" d="m193.9 188v-2.8h159.9v2.8c0 2.9-2.3 5.2-5.1 5.2h-149.6c-2.9 0-5.2-2.3-5.2-5.2z"/>
				<path id="&lt;Path&gt;" class="s20" d="m169.5 188v-2.8h119.2v8h-114.1c-2.8 0-5.1-2.3-5.1-5.2z"/>
			</g>
		</g>
	</g>
</svg>