<svg xmlns="http://www.w3.org/2000/svg" xmlns:xlink="http://www.w3.org/1999/xlink" width="80.968" height="77.594" viewBox="0 0 80.968 77.594">
  <defs>
    <linearGradient id="linear-gradient" x1="0.5" x2="0.5" y2="1" gradientUnits="objectBoundingBox">
      <stop offset="0" stop-color="#02c4ff"/>
      <stop offset="1" stop-color="#00556f"/>
    </linearGradient>
  </defs>
  <g id="presentation" transform="translate(0 -1)">
    <path id="Path_106" data-name="Path 106" d="M13.187,40.616A1.687,1.687,0,0,1,11.5,38.929V18.687a1.687,1.687,0,0,1,3.374,0V38.929A1.687,1.687,0,0,1,13.187,40.616Z" transform="translate(27.297 37.979)" fill="url(#linear-gradient)"/>
    <path id="Path_107" data-name="Path 107" d="M28.368,33.494a1.684,1.684,0,0,1-.935-.283L12.252,23.09a1.686,1.686,0,0,1,1.869-2.807L29.3,30.4a1.687,1.687,0,0,1-.935,3.09Z" transform="translate(27.297 45.1)" fill="url(#linear-gradient)"/>
    <path id="Path_108" data-name="Path 108" d="M8.689,33.5a1.687,1.687,0,0,1-.938-3.09L22.933,20.284A1.686,1.686,0,1,1,24.8,23.091L9.62,33.212A1.65,1.65,0,0,1,8.689,33.5Z" transform="translate(16.614 45.099)" fill="url(#linear-gradient)"/>
    <path id="Path_109" data-name="Path 109" d="M74.221,14.495H6.747A6.747,6.747,0,1,1,6.747,1H74.221a6.747,6.747,0,1,1,0,13.495ZM6.747,4.374a3.374,3.374,0,1,0,0,6.747H74.221a3.374,3.374,0,1,0,0-6.747Z" fill="url(#linear-gradient)"/>
    <path id="Path_110" data-name="Path 110" d="M64.413,51.231H7.061A5.067,5.067,0,0,1,2,46.171V5.687A1.687,1.687,0,0,1,3.687,4h64.1a1.687,1.687,0,0,1,1.687,1.687V46.171A5.067,5.067,0,0,1,64.413,51.231ZM5.374,7.374v38.8a1.687,1.687,0,0,0,1.687,1.687H64.413A1.687,1.687,0,0,0,66.1,46.171V7.374Z" transform="translate(4.747 7.121)" fill="url(#linear-gradient)"/>
    <path id="Path_111" data-name="Path 111" d="M7.687,33.988A1.685,1.685,0,0,1,6.493,31.11L19.988,17.615a1.687,1.687,0,0,1,2.129-.213l8.836,5.89L43.479,7.633a1.687,1.687,0,1,1,2.635,2.109L32.619,26.61a1.685,1.685,0,0,1-2.254.351l-8.971-5.978L8.878,33.5a1.692,1.692,0,0,1-1.191.489Z" transform="translate(14.241 14.244)" fill="url(#linear-gradient)"/>
  </g>
</svg>
