<svg xmlns="http://www.w3.org/2000/svg" xmlns:xlink="http://www.w3.org/1999/xlink" width="85.392" height="78.33" viewBox="0 0 85.392 78.33">
  <defs>
    <linearGradient id="linear-gradient" x1="0.5" x2="0.5" y2="1" gradientUnits="objectBoundingBox">
      <stop offset="0" stop-color="#02c4ff"/>
      <stop offset="1" stop-color="#00556f"/>
    </linearGradient>
  </defs>
  <g id="profile" transform="translate(-11.25 -15.408)">
    <path id="Path_112" data-name="Path 112" d="M38.141,63.082a6.074,6.074,0,1,0-6.073-6.074,6.074,6.074,0,0,0,6.073,6.074Zm0-9.325a3.252,3.252,0,1,1-3.251,3.251,3.252,3.252,0,0,1,3.251-3.251Z" transform="translate(-4.032 -6.88)" fill="url(#linear-gradient)"/>
    <path id="Path_113" data-name="Path 113" d="M88.78,15.408H19.112A7.871,7.871,0,0,0,11.25,23.27V85.876a7.871,7.871,0,0,0,7.862,7.862H88.78a7.871,7.871,0,0,0,7.862-7.862V23.27a7.871,7.871,0,0,0-7.862-7.862ZM19.112,18.23H88.78a5.045,5.045,0,0,1,5.04,5.04v8.252H14.072V23.27A5.045,5.045,0,0,1,19.112,18.23ZM93.82,85.874a5.045,5.045,0,0,1-5.04,5.04H19.112a5.045,5.045,0,0,1-5.04-5.04V34.348H93.82Z" transform="translate(0 0)" fill="url(#linear-gradient)"/>
    <path id="Path_114" data-name="Path 114" d="M26.375,28.306a1.522,1.522,0,1,0-1.521-1.521,1.522,1.522,0,0,0,1.521,1.521Z" transform="translate(-2.635 -1.908)" fill="url(#linear-gradient)"/>
    <path id="Path_115" data-name="Path 115" d="M37.154,28.306a1.522,1.522,0,1,0-1.521-1.521,1.522,1.522,0,0,0,1.521,1.521Z" transform="translate(-4.722 -1.908)" fill="url(#linear-gradient)"/>
    <path id="Path_116" data-name="Path 116" d="M47.935,28.306a1.522,1.522,0,1,0-1.521-1.521,1.522,1.522,0,0,0,1.521,1.521Z" transform="translate(-6.81 -1.908)" fill="url(#linear-gradient)"/>
    <path id="Path_117" data-name="Path 117" d="M64.132,48.994H96.5a1.411,1.411,0,1,0,0-2.822H64.132a1.411,1.411,0,0,0,0,2.822Z" transform="translate(-9.968 -5.958)" fill="url(#linear-gradient)"/>
    <path id="Path_118" data-name="Path 118" d="M64.132,59.773H80.319a1.411,1.411,0,0,0,0-2.822H64.132a1.411,1.411,0,0,0,0,2.822Z" transform="translate(-9.968 -8.045)" fill="url(#linear-gradient)"/>
    <path id="Path_119" data-name="Path 119" d="M23.437,90.154H85.843a1.411,1.411,0,1,0,0-2.822H23.437a1.411,1.411,0,0,0,0,2.822Z" transform="translate(-2.087 -13.929)" fill="url(#linear-gradient)"/>
    <path id="Path_120" data-name="Path 120" d="M23.437,100.933H85.843a1.411,1.411,0,1,0,0-2.822H23.437a1.411,1.411,0,1,0,0,2.822Z" transform="translate(-2.087 -16.016)" fill="url(#linear-gradient)"/>
    <path id="Path_121" data-name="Path 121" d="M23.437,74.509H48.953A1.411,1.411,0,0,0,50.364,73.1V47.583a1.411,1.411,0,0,0-1.411-1.411H23.437a1.411,1.411,0,0,0-1.411,1.411V73.1A1.411,1.411,0,0,0,23.437,74.509ZM28.7,71.687a7.622,7.622,0,0,1,14.982,0ZM24.848,48.994H47.542V71.687h-1a10.436,10.436,0,0,0-20.685,0h-1Z" transform="translate(-2.087 -5.958)" fill="url(#linear-gradient)"/>
  </g>
</svg>
