<svg xmlns="http://www.w3.org/2000/svg" xmlns:xlink="http://www.w3.org/1999/xlink" width="83.669" height="78.254" viewBox="0 0 83.669 78.254">
  <defs>
    <linearGradient id="linear-gradient" x1="0.5" x2="0.5" y2="1" gradientUnits="objectBoundingBox">
      <stop offset="0" stop-color="#02c4ff"/>
      <stop offset="1" stop-color="#00556f"/>
    </linearGradient>
  </defs>
  <g id="Group_78" data-name="Group 78" transform="translate(-311 -3167)">
    <g id="conference" transform="translate(311 3167)">
      <path id="Path_104" data-name="Path 104" d="M83.669,69.229s0,0,0-.006V23.206a6.647,6.647,0,0,0-6.64-6.64H6.64A6.647,6.647,0,0,0,0,23.206v5.671a1.226,1.226,0,1,0,2.451,0V23.206A4.194,4.194,0,0,1,6.64,19.017H77.028a4.194,4.194,0,0,1,4.189,4.189V68H78.254v-44.8a1.225,1.225,0,0,0-1.226-1.226H6.64a1.225,1.225,0,0,0-1.226,1.226V68H2.451V33.78A1.226,1.226,0,0,0,0,33.78V69.226s0,0,0,0,0,0,0,0v2.7a6.648,6.648,0,0,0,6.64,6.64H31.133v8.378h-8.25a1.225,1.225,0,0,0-1.226,1.226v5.414a1.225,1.225,0,0,0,1.226,1.226h37.9a1.225,1.225,0,0,0,1.226-1.226V88.18a1.225,1.225,0,0,0-1.226-1.226h-8.25V78.577H77.029a6.648,6.648,0,0,0,6.64-6.64v-2.7a.041.041,0,0,1,0-.006Zm-75.8-44.8H75.8V68H7.866ZM59.559,92.369H24.109V89.406h35.45ZM43.316,86.955H40.353V83.991h2.963Zm6.768,0H45.767v-4.19a1.225,1.225,0,0,0-1.226-1.226H39.127A1.225,1.225,0,0,0,37.9,82.765v4.19H33.585V78.577h16.5ZM77.028,76.126H6.64a4.194,4.194,0,0,1-4.189-4.189V70.455H81.217v1.482A4.194,4.194,0,0,1,77.028,76.126Z" transform="translate(0 -16.566)" fill="url(#linear-gradient)"/>
      <path id="Path_105" data-name="Path 105" d="M155.389,104.989a9.346,9.346,0,0,0-7.94-16.472,9.346,9.346,0,0,0-17.2,0,9.344,9.344,0,0,0-7.94,16.472,9.362,9.362,0,0,0-6.345,8.85v5.414a1.225,1.225,0,0,0,1.226,1.226h43.316a1.225,1.225,0,0,0,1.226-1.226v-5.415a9.362,9.362,0,0,0-6.346-8.85ZM149.68,90.7a6.9,6.9,0,0,1,.351,13.783,9.394,9.394,0,0,0-5.471-4.908,9.314,9.314,0,0,0,3.546-8.694A6.916,6.916,0,0,1,149.68,90.7Zm-10.829-5.414a6.9,6.9,0,1,1-6.9,6.9A6.9,6.9,0,0,1,138.851,85.285ZM121.125,97.6a6.9,6.9,0,0,1,8.47-6.715,9.314,9.314,0,0,0,3.546,8.694,9.394,9.394,0,0,0-5.471,4.908A6.905,6.905,0,0,1,121.125,97.6Zm-2.707,16.243a6.9,6.9,0,0,1,6.9-6.9h1.6a9.363,9.363,0,0,0-.119,1.482v9.6h-8.378v-4.189Zm10.829-5.414a6.9,6.9,0,0,1,6.9-6.9h5.414a6.9,6.9,0,0,1,6.9,6.9v9.6H129.247Zm30.036,9.6h-8.378v-9.6a9.363,9.363,0,0,0-.119-1.482h1.6a6.9,6.9,0,0,1,6.9,6.9Z" transform="translate(-97.016 -72.005)" fill="url(#linear-gradient)"/>
    </g>
  </g>
</svg>
